<svg width="50" height="50" viewBox="0 0 50 50" fill="none" xmlns="http://www.w3.org/2000/svg">
<path d="M36.2903 22.5807C36.7353 22.5807 37.0968 22.9429 37.0968 23.3871H38.7097C38.7097 22.3373 38.0332 21.4501 37.0968 21.1162V19.3549H35.4839V21.1162C34.5475 21.4501 33.871 22.3373 33.871 23.3871C33.871 24.7208 34.9566 25.8065 36.2903 25.8065C36.7353 25.8065 37.0968 26.168 37.0968 26.6129C37.0968 27.0579 36.7353 27.4194 36.2903 27.4194C35.8454 27.4194 35.4839 27.0579 35.4839 26.6129H33.871C33.871 27.6627 34.5475 28.5499 35.4839 28.8838V30.6452H37.0968V28.8838C38.0332 28.5499 38.7097 27.6627 38.7097 26.6129C38.7097 25.2792 37.624 24.1936 36.2903 24.1936C35.8454 24.1936 35.4839 23.8313 35.4839 23.3871C35.4839 22.9429 35.8454 22.5807 36.2903 22.5807Z" fill="white"/>
<path d="M50 25C50 23.7104 49.379 22.5145 48.3662 21.7636C48.8687 20.6074 48.8088 19.2611 48.1638 18.1452C47.5184 17.0284 46.3832 16.3031 45.1306 16.1597C44.9865 14.9071 44.2619 13.7719 43.1452 13.1265C42.0284 12.4831 40.6829 12.4224 39.5268 12.9241C38.7758 11.9113 37.5807 11.2903 36.2903 11.2903C36.0155 11.2903 35.7469 11.3242 35.4839 11.3781V8.87097C35.4839 6.64771 33.6749 4.83871 31.4516 4.83871H25V3.22581H21.6927C21.3186 1.38806 19.6895 0 17.7419 0C15.7943 0 14.1653 1.38806 13.7912 3.22581H10.4839V4.83871H4.03226C1.809 4.83871 0 6.64771 0 8.87097V45.9677C0 48.191 1.809 50 4.03226 50H31.4516C33.6749 50 35.4839 48.191 35.4839 45.9677V38.6219C35.7469 38.6758 36.0155 38.7097 36.2903 38.7097C37.5807 38.7097 38.7758 38.0887 39.5268 37.0759C40.6829 37.5799 42.0292 37.5177 43.1452 36.8735C44.2619 36.2281 44.9865 35.0936 45.1306 33.8403C46.384 33.6961 47.5184 32.9716 48.1638 31.8548C48.8088 30.7381 48.8687 29.3918 48.3662 28.2364C49.379 27.4855 50 26.2904 50 25ZM31.4516 6.45161C32.7853 6.45161 33.871 7.53725 33.871 8.87097V12.1098C33.5646 12.3413 33.2862 12.6114 33.0539 12.9241C32.7967 12.8131 32.529 12.7331 32.2581 12.6776V8.06452H25V6.45161H31.4516ZM24.2144 21.7636C23.8959 21.9998 23.621 22.2845 23.3871 22.5984V22.5806H22.5806V16.9355H20.9677V22.5806H19.3548V14.5161H17.7419V22.5806H16.129V12.9032H14.5161V22.5806H12.9032V17.7419H11.2903V22.5806H9.67742V19.3548H8.06452V22.5806H6.45161V24.1935H22.6685C22.6145 24.4566 22.5806 24.7251 22.5806 25C22.5806 25.2749 22.6145 25.5434 22.6685 25.8065H6.45161V37.0968H29.0323V36.6065C29.1606 36.7026 29.2945 36.792 29.4355 36.8735C29.8171 37.0936 30.2266 37.2405 30.6452 37.3252V45.1613H11.2903V38.7097H4.83871V9.67742H10.4839V11.2903H25V9.67742H30.6452V12.6748C30.2266 12.7595 29.8178 12.9064 29.4355 13.1265C28.3187 13.7719 27.5942 14.9071 27.4501 16.1597C26.1975 16.3031 25.0622 17.0284 24.4168 18.1452C23.7726 19.2619 23.712 20.6074 24.2144 21.7636ZM24.4168 31.8548C25.0563 32.9621 26.1782 33.6824 27.4194 33.8347V35.4839H8.06452V27.4194H23.4001C23.6316 27.7257 23.9018 28.0041 24.2144 28.2364C23.712 29.3918 23.7726 30.7381 24.4168 31.8548ZM9.67742 44.0209L5.97908 40.3226H9.67742V44.0209ZM12.0968 4.83871H15.3226V4.03226C15.3226 2.69854 16.4082 1.6129 17.7419 1.6129C19.0757 1.6129 20.1613 2.69854 20.1613 4.03226V4.83871H23.3871V9.67742H12.0968V4.83871ZM33.871 45.9677C33.871 47.3015 32.7853 48.3871 31.4516 48.3871H4.03226C2.69854 48.3871 1.6129 47.3015 1.6129 45.9677V8.87097C1.6129 7.53725 2.69854 6.45161 4.03226 6.45161H10.4839V8.06452H3.22581V39.8501L10.15 46.7742H32.2581V37.3232C32.5298 37.2677 32.7967 37.1877 33.0539 37.0759C33.2862 37.3886 33.5646 37.6587 33.871 37.8902V45.9677ZM46.9482 27.2071L46.0378 27.6119L46.6242 28.4176C47.1865 29.1921 47.2428 30.2242 46.7671 31.0484C46.291 31.8726 45.37 32.3404 44.4171 32.2411L43.4275 32.1372L43.5315 33.1267C43.6307 34.0789 43.1629 35.0007 42.3387 35.4768C41.5153 35.9533 40.4832 35.8962 39.7079 35.3338L38.9022 34.7475L38.4974 35.6579C38.108 36.5321 37.2421 37.0968 36.2903 37.0968C35.3386 37.0968 34.4727 36.5321 34.0832 35.6579L33.6784 34.7475L32.8727 35.3338C32.0982 35.895 31.0677 35.9533 30.2419 35.4768C29.4186 35.0007 28.95 34.0789 29.0492 33.1267L29.1531 32.1372L28.1636 32.2411C27.2114 32.3372 26.2896 31.8718 25.8135 31.0484C25.3379 30.225 25.3934 29.1921 25.9565 28.4176L26.5428 27.6119L25.6324 27.2071C24.7582 26.8177 24.1935 25.9518 24.1935 25C24.1935 24.0482 24.7582 23.1823 25.6324 22.7929L26.5428 22.3881L25.9565 21.5824C25.3942 20.8079 25.3379 19.7758 25.8135 18.9516C26.2904 18.1274 27.2225 17.6588 28.1628 17.7597L29.1531 17.8636L29.0492 16.8733C28.95 15.9211 29.4178 14.9985 30.2419 14.5232C31.0653 14.0483 32.0994 14.1038 32.8727 14.6662L33.6784 15.2517L34.0832 14.3421C34.4727 13.4679 35.3386 12.9032 36.2903 12.9032C37.2421 12.9032 38.108 13.4679 38.4974 14.3421L38.9022 15.2517L39.7079 14.6662C40.4813 14.1038 41.5153 14.0483 42.3387 14.5232C43.1621 14.9985 43.6307 15.9211 43.5315 16.8733L43.4275 17.8636L44.4178 17.7597C45.3629 17.6588 46.2902 18.1267 46.7671 18.9516C47.2428 19.775 47.1873 20.8079 46.6242 21.5824L46.0378 22.3881L46.9482 22.7929C47.8224 23.1823 48.3871 24.0482 48.3871 25C48.3871 25.9518 47.8224 26.8177 46.9482 27.2071Z" fill="white"/>
<path d="M36.2903 16.129C31.3992 16.129 27.4193 20.1089 27.4193 25C27.4193 29.8911 31.3992 33.871 36.2903 33.871C41.1814 33.871 45.1613 29.8911 45.1613 25C45.1613 20.1089 41.1814 16.129 36.2903 16.129ZM36.2903 32.2581C32.288 32.2581 29.0322 29.0023 29.0322 25C29.0322 20.9985 32.288 17.7419 36.2903 17.7419C40.2926 17.7419 43.5484 20.9985 43.5484 25C43.5484 29.0023 40.2926 32.2581 36.2903 32.2581Z" fill="white"/>
<path d="M13.7097 6.45166H15.3226V8.06456H13.7097V6.45166Z" fill="white"/>
<path d="M20.1613 6.45166H21.7742V8.06456H20.1613V6.45166Z" fill="white"/>
<path d="M12.9032 41.9354H25.8065V43.5483H12.9032V41.9354Z" fill="white"/>
<path d="M27.4193 41.9354H29.0322V43.5483H27.4193V41.9354Z" fill="white"/>
<path d="M12.9032 38.7097H29.0323V40.3226H12.9032V38.7097Z" fill="white"/>
</svg>
