<svg width="50" height="50" viewBox="0 0 50 50" fill="none" xmlns="http://www.w3.org/2000/svg">
<g clip-path="url(#clip0)">
<path d="M47.7056 7.65344L39.0042 4.02834C38.0497 3.63079 36.955 3.63088 36.0006 4.02844L31.8229 5.76858C31.4494 5.92424 31.2728 6.35295 31.4283 6.72639C31.5839 7.09983 32.0126 7.27659 32.3861 7.12092L36.5639 5.38069C37.1601 5.13225 37.8444 5.13215 38.441 5.38059L47.1419 9.00549C47.9882 9.35852 48.5352 10.1524 48.5352 11.0277V42.3509C48.5352 43.569 47.489 44.5599 46.2031 44.5599H45.0156C44.6111 44.5599 44.2832 44.8877 44.2832 45.2923C44.2832 45.6969 44.6111 46.0247 45.0156 46.0247H46.2031C48.2967 46.0247 50 44.3767 50 42.3509V11.0277C50 9.5593 49.0994 8.23489 47.7056 7.65344Z" fill="white"/>
<path d="M41.8232 44.56H29.5166C30.0233 43.984 30.3008 43.2533 30.3008 42.4799C30.3008 41.7081 30.0214 41.0008 29.5591 40.4524C29.8506 40.3036 30.1205 40.109 30.3588 39.8708C30.9537 39.2758 31.2813 38.4847 31.2813 37.643C31.2813 36.8407 30.9793 36.1078 30.4837 35.551C30.7291 35.412 30.9576 35.2398 31.1623 35.0349C31.7572 34.4401 32.0849 33.649 32.0849 32.8071C32.0849 32.0071 31.7848 31.2761 31.292 30.7198C31.5415 30.5797 31.7739 30.4053 31.9823 30.1974C32.5769 29.6015 32.9042 28.8106 32.9042 27.9701C32.9042 26.2324 31.4909 24.8187 29.7537 24.8187H26.4695V11.0277C26.4695 10.1523 27.0165 9.35843 27.8624 9.0056L29.1945 8.45091C29.568 8.29544 29.7446 7.86673 29.5892 7.4932C29.4336 7.11976 29.0049 6.94281 28.6315 7.09857L27.2988 7.65345C25.9052 8.2348 25.0047 9.55931 25.0047 11.0277V24.8188H21.9444C22.9635 21.5985 22.8768 18.2376 21.6875 14.3369C21.5068 13.7462 21.1475 13.2403 20.648 12.8738C20.1514 12.5095 19.5629 12.3168 18.946 12.3168C18.1513 12.3168 17.4123 12.6342 16.865 13.2105C16.3181 13.7867 16.0396 14.541 16.0808 15.3343C16.3098 19.7383 14.2783 21.2541 11.4667 23.3523C10.541 24.043 9.5293 24.7985 8.53496 25.7249V24.765C8.53496 24.3604 8.20713 24.0326 7.80254 24.0326H0.732422C0.327832 24.0326 0 24.3604 0 24.765V45.5374C0 45.942 0.327832 46.2699 0.732422 46.2699H7.80274C8.20733 46.2699 8.53516 45.942 8.53516 45.5374V43.6949C9.92627 43.8272 10.9423 44.1044 11.9294 44.861C12.5774 45.3577 13.3763 45.6312 14.1787 45.6312H27.0958C27.6235 45.8884 28.2086 46.0247 28.8017 46.0247H41.8232C42.2277 46.0247 42.5556 45.6969 42.5556 45.2923C42.5556 44.8877 42.2277 44.56 41.8232 44.56ZM12.8205 43.6983C11.4395 42.64 9.96348 42.3459 8.53516 42.2226V33.6703C8.53516 33.2658 8.20733 32.9379 7.80274 32.9379C7.39815 32.9379 7.07031 33.2658 7.07031 33.6703V44.8051H1.46484V25.4975H7.07031V30.479C7.07031 30.8836 7.39815 31.2115 7.80274 31.2115C8.20733 31.2115 8.53516 30.8836 8.53516 30.479V27.8057C9.76035 26.4536 11.0723 25.4746 12.343 24.5264C15.1564 22.4271 17.8136 20.4441 17.5439 15.2583C17.5237 14.8702 17.66 14.5011 17.9277 14.2192C18.1955 13.937 18.5572 13.7818 18.9463 13.7818C19.2493 13.7818 19.5381 13.8762 19.7815 14.0549C20.0246 14.2332 20.1993 14.4789 20.2868 14.765C21.4981 18.7381 21.4791 22.0809 20.2272 25.2849C20.1391 25.5103 20.1681 25.7646 20.3045 25.9645C20.4409 26.1644 20.6673 26.2839 20.9093 26.2839H29.7539C30.6834 26.2839 31.4396 27.0405 31.4396 27.9704C31.4396 28.4201 31.2641 28.8437 30.9466 29.1619C30.6273 29.4805 30.2038 29.656 29.7539 29.656H26.7451C26.3405 29.656 26.0127 29.9838 26.0127 30.3884C26.0127 30.793 26.3405 31.1208 26.7451 31.1208H28.9346C29.864 31.1208 30.6201 31.8774 30.6201 32.8075C30.6201 33.2579 30.4449 33.6813 30.1266 33.9995C29.8084 34.3178 29.3851 34.493 28.9346 34.493H26.7451C26.3405 34.493 26.0127 34.8208 26.0127 35.2254C26.0127 35.63 26.3405 35.9578 26.7451 35.9578H28.1308C29.0603 35.9578 29.8164 36.714 29.8164 37.6434C29.8164 38.0938 29.6411 38.5172 29.323 38.8355C29.004 39.1544 28.5806 39.3299 28.1308 39.3299H27.1503H25.9413C25.5367 39.3299 25.2089 39.6577 25.2089 40.0623C25.2089 40.4669 25.5367 40.7948 25.9413 40.7948H27.1503C28.0798 40.7948 28.8359 41.5509 28.8359 42.4803C28.8359 42.9307 28.6605 43.3545 28.3431 43.6727C28.0456 43.9695 27.5757 44.1588 27.224 44.1651C27.1997 44.1655 14.1787 44.1668 14.1787 44.1668C13.6967 44.1663 13.2143 44.0001 12.8205 43.6983Z" fill="white"/>
<path d="M40.1457 11.3531C40.1457 9.81404 38.8936 8.56189 37.3545 8.56189C35.8154 8.56189 34.5633 9.81404 34.5633 11.3531C34.5633 12.8922 35.8154 14.1443 37.3545 14.1443C38.8936 14.1443 40.1457 12.8922 40.1457 11.3531ZM36.0281 11.3531C36.0281 10.6218 36.6232 10.0267 37.3545 10.0267C38.0859 10.0267 38.6809 10.6218 38.6809 11.3531C38.6809 12.0845 38.0859 12.6795 37.3545 12.6795C36.6232 12.6795 36.0281 12.0845 36.0281 11.3531Z" fill="white"/>
<path d="M37.8121 36.3442H36.4985C35.8066 36.3442 35.2438 35.7812 35.2438 35.0893C35.2438 34.6847 34.9159 34.3569 34.5113 34.3569C34.1067 34.3569 33.7789 34.6847 33.7789 35.0893C33.7789 36.5637 34.9582 37.7668 36.4229 37.8071V39.428C36.4229 39.8326 36.7507 40.1604 37.1553 40.1604C37.5599 40.1604 37.8877 39.8326 37.8877 39.428V37.8071C39.3524 37.7668 40.5317 36.5637 40.5317 35.0893V34.0754C40.5317 33.1346 39.9307 32.3074 39.0359 32.0166L35.7273 30.9419C35.4381 30.8478 35.2438 30.5804 35.2438 30.2763V28.8245C35.2438 28.2626 35.7009 27.8053 36.2628 27.8053H38.0479C38.6099 27.8053 39.067 28.2626 39.067 28.8245C39.067 29.2291 39.3948 29.5569 39.7994 29.5569C40.204 29.5569 40.5318 29.2291 40.5318 28.8245C40.5318 27.4549 39.4176 26.3405 38.0479 26.3405H37.8877V24.7216C37.8877 24.317 37.5599 23.9891 37.1553 23.9891C36.7507 23.9891 36.4229 24.317 36.4229 24.7216V26.3405H36.2627C34.8932 26.3405 33.7788 27.4548 33.7788 28.8245V30.2763C33.7788 31.2171 34.3799 32.0443 35.2746 32.335L38.5831 33.4097C38.8725 33.5038 39.0668 33.7713 39.0668 34.0754V35.0893C39.067 35.7812 38.504 36.3442 37.8121 36.3442Z" fill="white"/>
</g>
<defs>
<clipPath id="clip0">
<rect width="50" height="50" fill="white"/>
</clipPath>
</defs>
</svg>
