<svg width="50" height="50" viewBox="0 0 50 50" fill="none" xmlns="http://www.w3.org/2000/svg">
<g clip-path="url(#clip0)">
<path d="M8.30781 44.4269C8.12627 44.2451 7.87431 44.1407 7.61748 44.1407C7.36064 44.1407 7.10869 44.2451 6.92705 44.4269C6.74541 44.6086 6.64091 44.8605 6.64091 45.1173C6.64091 45.3741 6.74531 45.6261 6.92705 45.8076C7.10869 45.9893 7.36064 46.0939 7.61748 46.0939C7.87431 46.0939 8.12627 45.9894 8.30781 45.8076C8.48945 45.6261 8.59404 45.3741 8.59404 45.1173C8.59404 44.8605 8.48955 44.6085 8.30781 44.4269Z" fill="white"/>
<path d="M45.852 17.865C45.6703 17.6833 45.4193 17.5789 45.1615 17.5789C44.9047 17.5789 44.6527 17.6833 44.4711 17.865C44.2896 18.0466 44.185 18.2986 44.185 18.5554C44.185 18.8123 44.2895 19.0642 44.4711 19.2458C44.6527 19.4274 44.9047 19.532 45.1615 19.532C45.4193 19.532 45.6703 19.4275 45.852 19.2458C46.0345 19.0642 46.139 18.8123 46.139 18.5554C46.139 18.2986 46.0345 18.0466 45.852 17.865Z" fill="white"/>
<path d="M49.7134 0.286035C49.5302 0.10293 49.2817 0 49.0226 0L24.9998 0.00126953C24.4605 0.00126953 24.0233 0.438574 24.0233 0.977832V3.77051L14.7666 6.25088C14.2456 6.39053 13.9364 6.92598 14.0761 7.44687L18.8736 25.3514L14.7233 29.5017C14.1951 28.7304 13.3082 28.2231 12.305 28.2231H2.93028C1.31485 28.2231 0.000686646 29.5374 0.000686646 31.1527V47.0703C0.000686646 48.6857 1.31485 50 2.93028 50H12.3051C13.6774 50 14.8319 49.0512 15.1483 47.7754L16.3095 48.788C17.2059 49.5696 18.3543 50.0001 19.5436 50.0001H49.0228C49.5621 50.0001 49.9994 49.5628 49.9994 49.0235V0.976562C49.9992 0.717578 49.8965 0.469141 49.7134 0.286035ZM13.2814 47.0704C13.2814 47.6088 12.8434 48.047 12.3049 48.047H2.93018C2.3917 48.047 1.95362 47.6089 1.95362 47.0704V31.1528C1.95362 30.6144 2.3917 30.1763 2.93018 30.1763H6.64102V41.4258C6.64102 41.965 7.07832 42.4023 7.61758 42.4023C8.15684 42.4023 8.59414 41.965 8.59414 41.4258V30.1763H12.305C12.8435 30.1763 13.2815 30.6144 13.2815 31.1528V47.0704H13.2814ZM16.2153 7.88467L24.0233 5.79248V9.41113L23.3688 9.58652C23.1186 9.65361 22.9054 9.81719 22.7759 10.0415C22.6464 10.2658 22.6112 10.5323 22.6783 10.7825C23.0536 12.183 22.2195 13.6276 20.819 14.0029C20.5686 14.0701 20.355 14.234 20.2256 14.4588C20.0962 14.6835 20.0613 14.9505 20.129 15.2009L23.9355 29.2964H21.9756L20.9655 25.3448C20.9334 25.219 20.8771 25.1031 20.8019 25.0023L16.2153 7.88467ZM24.0233 13.8896V22.1299L22.2422 15.5347C22.9862 15.1505 23.5951 14.5757 24.0233 13.8896ZM38.053 48.0469H19.5435C18.8262 48.0469 18.1335 47.7873 17.5929 47.3159L15.2346 45.2592V31.7526L19.498 27.4892L20.2713 30.5145C20.3818 30.9469 20.7712 31.2492 21.2174 31.2492L40.417 31.2504C41.1709 31.2504 41.7842 31.8637 41.7842 32.6176C41.7842 33.3715 41.1709 33.9848 40.417 33.9848H30.5791C30.0398 33.9848 29.6025 34.4221 29.6025 34.9613C29.6025 35.5006 30.0398 35.9379 30.5791 35.9379H43.4736C44.2275 35.9379 44.8408 36.5512 44.8408 37.3051C44.8408 38.059 44.2275 38.6723 43.4736 38.6723H30.5791C30.0398 38.6723 29.6025 39.1096 29.6025 39.6488C29.6025 40.1881 30.0398 40.6254 30.5791 40.6254H41.3841C42.138 40.6254 42.7513 41.2387 42.7513 41.9926C42.7513 42.7465 42.138 43.3598 41.3841 43.3598H30.5791C30.0398 43.3598 29.6025 43.7971 29.6025 44.3363C29.6025 44.8756 30.0398 45.3129 30.5791 45.3129H38.053C38.8069 45.3129 39.4202 45.9262 39.4202 46.6801C39.4201 47.4336 38.8068 48.0469 38.053 48.0469ZM48.0463 48.0469H48.0462H41.0775C41.2669 47.6296 41.3732 47.167 41.3732 46.6797C41.3732 46.1924 41.2669 45.7298 41.0775 45.3125H41.3841C43.2148 45.3125 44.7043 43.823 44.7043 41.9923C44.7043 41.4583 44.5768 40.9537 44.3518 40.5062C45.7577 40.1201 46.7937 38.8315 46.7937 37.3049C46.7937 36.5643 46.5498 35.8796 46.1384 35.3269V22.9499C46.1384 22.4106 45.7011 21.9733 45.1618 21.9733C44.6226 21.9733 44.1852 22.4106 44.1852 22.9499V34.0624C43.9558 34.0121 43.7178 33.9848 43.4734 33.9848H43.4414C43.6308 33.5675 43.7371 33.1049 43.7371 32.6176C43.7371 30.7867 42.2477 29.2974 40.4169 29.2974H38.8471C40.514 28.5825 41.6847 26.9257 41.6847 25C41.6847 22.4229 39.5882 20.3264 37.0111 20.3264C34.4342 20.3264 32.3376 22.4229 32.3376 25C32.3376 26.9257 33.5084 28.5825 35.1752 29.2974H29.837V10.7288C31.5815 10.3486 32.9581 8.97217 33.3382 7.22754H40.684C41.0641 8.97217 42.4406 10.3486 44.1852 10.7288V13.7649C44.1852 14.3042 44.6225 14.7415 45.1617 14.7415C45.701 14.7415 46.1383 14.3042 46.1383 13.7649V9.85693C46.1383 9.31768 45.701 8.88037 45.1617 8.88037C43.7118 8.88037 42.5324 7.70078 42.5324 6.25098C42.5324 5.71172 42.0951 5.27441 41.5559 5.27441H32.4664C31.9271 5.27441 31.4898 5.71172 31.4898 6.25098C31.4898 7.70088 30.3104 8.88037 28.8605 8.88037C28.3213 8.88037 27.884 9.31768 27.884 9.85693V29.2973H25.9766V1.9542L48.0463 1.95312V48.0469ZM37.0113 27.7205C35.5112 27.7205 34.2909 26.5001 34.2909 25.0001C34.2909 23.5001 35.5113 22.2796 37.0113 22.2796C38.5113 22.2796 39.7317 23.5 39.7317 25C39.7317 26.5 38.5114 27.7205 37.0113 27.7205Z" fill="white"/>
</g>
<defs>
<clipPath id="clip0">
<rect width="50" height="50" fill="white"/>
</clipPath>
</defs>
</svg>
