<svg width="50" height="50" viewBox="0 0 50 50" fill="none" xmlns="http://www.w3.org/2000/svg">
<g clip-path="url(#clip0)">
<path d="M36.9702 0H7.61622C6.26251 0 5.16134 1.10127 5.16134 2.45498V3.38955H3.95568C2.60206 3.38955 1.50079 4.49082 1.50079 5.84453V37.223C1.50079 37.6276 1.82872 37.9555 2.23322 37.9555C2.63771 37.9555 2.96564 37.6276 2.96564 37.223V5.84453C2.96564 5.29853 3.40978 4.85439 3.95568 4.85439H33.3097C33.8556 4.85439 34.2997 5.29853 34.2997 5.84453V47.5451C34.2997 48.0911 33.8556 48.5353 33.3097 48.5353H3.95568C3.40978 48.5353 2.96564 48.0911 2.96564 47.5451V40.6411C2.96564 40.2365 2.63771 39.9087 2.23322 39.9087C1.82872 39.9087 1.50079 40.2365 1.50079 40.6411V47.5451C1.50079 48.8987 2.60206 50.0001 3.95568 50.0001H33.3097C34.6633 50.0001 35.7645 48.8988 35.7645 47.5451V46.6105H36.9701C38.3237 46.6105 39.425 45.5093 39.425 44.1556V11.7665C39.425 11.3619 39.0971 11.0341 38.6926 11.0341C38.2881 11.0341 37.9602 11.3619 37.9602 11.7665V44.1555C37.9602 44.7015 37.516 45.1456 36.9701 45.1456H36.0354V5.84453C36.0354 4.49092 34.9342 3.38955 33.5806 3.38955C33.1772 3.38955 6.81183 3.38955 6.62608 3.38955V2.45498C6.62618 1.90898 7.07022 1.46484 7.61622 1.46484H36.9702C37.5161 1.46484 37.9603 1.90898 37.9603 2.45498V8.34863C37.9603 8.75322 38.2882 9.08105 38.6927 9.08105C39.0972 9.08105 39.4251 8.75322 39.4251 8.34863V2.45498C39.4251 1.10127 38.3238 0 36.9702 0V0Z" fill="white"/>
<path d="M46.8474 14.5309H42.9399C42.029 14.5309 41.288 15.2719 41.288 16.1827V36.9741C41.288 36.9882 41.2894 37.002 41.2901 37.0159C41.2905 37.0236 41.2906 37.0312 41.2913 37.0388C41.2965 37.0974 41.3087 37.1538 41.3268 37.2076C41.3287 37.2133 41.331 37.219 41.333 37.2246C41.3412 37.2471 41.3505 37.2691 41.3607 37.2906C41.3624 37.294 41.3635 37.2977 41.3652 37.3011L43.7686 42.1161C44.0028 42.5854 44.4234 42.8656 44.8938 42.8656C45.3642 42.8656 45.7848 42.5854 46.0189 42.1162L48.4222 37.3011C48.4243 37.2969 48.4256 37.2924 48.4277 37.2882C48.4371 37.2684 48.4456 37.2481 48.4534 37.2273C48.456 37.2201 48.4587 37.2132 48.4611 37.2061C48.4695 37.181 48.4768 37.1553 48.4825 37.129C48.4828 37.1272 48.4835 37.1254 48.4839 37.1236C48.4896 37.0964 48.4934 37.0686 48.4959 37.0404C48.4968 37.0308 48.4969 37.0212 48.4974 37.0116C48.4981 36.9991 48.4993 36.9867 48.4993 36.9741C48.4993 36.2143 48.4993 17.2204 48.4993 16.1827C48.4993 15.2719 47.7582 14.5309 46.8474 14.5309ZM44.8937 41.0905L43.2047 37.7066H46.5827L44.8937 41.0905ZM47.0344 36.2416H42.7529V20.5793H47.0344V36.2416ZM47.0344 19.1145H42.7529V16.1827C42.7529 16.0796 42.8368 15.9957 42.94 15.9957H46.8475C46.9506 15.9957 47.0345 16.0796 47.0345 16.1827V19.1145H47.0344Z" fill="white"/>
<path d="M5.68536 44.5564C5.68536 45.3911 6.36437 46.0701 7.19903 46.0701H11.2355C12.0701 46.0701 12.7491 45.3911 12.7491 44.5564V40.6994L14.4201 38.9217C14.6972 38.627 14.6828 38.1634 14.3881 37.8864C14.0934 37.6093 13.6299 37.6237 13.3527 37.9184L12.0845 39.2676C11.8422 39.1028 11.5499 39.0063 11.2355 39.0063H7.19903C6.36437 39.0063 5.68536 39.6853 5.68536 40.52V44.5564ZM11.2843 42.2577V44.5564C11.2843 44.5832 11.2624 44.6052 11.2355 44.6052H9.06485C9.09366 44.5827 9.12149 44.5584 9.14698 44.5314L11.2843 42.2577ZM7.15021 40.52C7.15021 40.4931 7.17208 40.4711 7.19903 40.4711H10.9532L8.71593 42.8512L7.40333 40.8509C7.33683 40.7496 7.24913 40.6706 7.1503 40.615V40.52H7.15021ZM7.15021 43.1354C8.07765 44.5487 8.03292 44.5045 8.16105 44.6052H7.19903C7.17208 44.6052 7.15021 44.5832 7.15021 44.5564V43.1354Z" fill="white"/>
<path d="M30.8228 41.8057H15.2629C14.8584 41.8057 14.5305 42.1335 14.5305 42.5381C14.5305 42.9427 14.8584 43.2705 15.2629 43.2705H30.8228C31.2273 43.2705 31.5552 42.9427 31.5552 42.5381C31.5552 42.1335 31.2273 41.8057 30.8228 41.8057Z" fill="white"/>
<path d="M7.39435 23.7217H20.3786C21.3209 23.7217 22.0876 22.955 22.0876 22.0127V9.02832C22.0876 8.08604 21.3209 7.31934 20.3786 7.31934H7.39435C6.45206 7.31934 5.68536 8.08604 5.68536 9.02832V22.0127C5.68536 22.9551 6.45206 23.7217 7.39435 23.7217ZM7.15021 9.02832C7.15021 8.89365 7.25978 8.78418 7.39435 8.78418H20.3786C20.5132 8.78418 20.6228 8.89365 20.6228 9.02832V22.0127C20.6228 22.1474 20.5132 22.2568 20.3786 22.2568H7.39435C7.25978 22.2568 7.15021 22.1474 7.15021 22.0127V9.02832Z" fill="white"/>
<path d="M11.0352 21.0829C11.4395 21.0829 11.7686 20.7548 11.7686 20.3515V18.7695C11.7705 17.6065 12.7157 16.6574 13.8775 16.6505C13.8806 16.6505 13.8835 16.6507 13.8865 16.6507C13.8897 16.6507 13.8927 16.6505 13.8957 16.6505C15.0576 16.6573 16.0029 17.6064 16.0049 18.7695V19.619H14.4531C14.0498 19.619 13.7207 19.9471 13.7207 20.3514C13.7207 20.7547 14.0498 21.0838 14.4531 21.0838C14.4541 21.0838 14.4551 21.0838 14.4551 21.0828H16.7373C16.9297 21.0828 17.1191 21.0047 17.2549 20.8691C17.3916 20.7323 17.4697 20.5439 17.4697 20.3514V18.7695C17.4697 17.8113 17.0967 16.9119 16.4199 16.2353C16.2923 16.1076 16.1567 15.9908 16.0144 15.8854C16.7582 15.271 17.2331 14.3421 17.2331 13.3043C17.2331 11.459 15.7318 9.95764 13.8865 9.95764C12.0412 9.95764 10.5399 11.4589 10.5399 13.3043C10.5399 14.342 11.0147 15.2709 11.7585 15.8853C11.616 15.9908 11.4803 16.1076 11.3525 16.2354C10.6758 16.9121 10.3037 17.8115 10.3037 18.7695V20.3515C10.3037 20.544 10.3818 20.7323 10.5176 20.8692C10.6543 21.0048 10.8428 21.0829 11.0352 21.0829ZM13.8865 11.4225C14.9241 11.4225 15.7683 12.2667 15.7683 13.3043C15.7683 14.3398 14.9275 15.1821 13.8929 15.1857C13.8908 15.1857 13.8888 15.1856 13.8867 15.1856C13.8846 15.1856 13.8824 15.1857 13.8803 15.1858C12.8456 15.1823 12.0048 14.3399 12.0048 13.3044C12.0048 12.2666 12.8489 11.4225 13.8865 11.4225Z" fill="white"/>
<path d="M24.3493 12.36H30.8228C31.2273 12.36 31.5552 12.0322 31.5552 11.6276C31.5552 11.223 31.2273 10.8951 30.8228 10.8951H24.3493C23.9448 10.8951 23.6169 11.223 23.6169 11.6276C23.6169 12.0322 23.9448 12.36 24.3493 12.36Z" fill="white"/>
<path d="M24.3493 16.5125H30.8228C31.2273 16.5125 31.5552 16.1846 31.5552 15.78C31.5552 15.3754 31.2273 15.0476 30.8228 15.0476H24.3493C23.9448 15.0476 23.6169 15.3754 23.6169 15.78C23.6169 16.1846 23.9448 16.5125 24.3493 16.5125Z" fill="white"/>
<path d="M24.3493 20.9414H30.8228C31.2273 20.9414 31.5552 20.6136 31.5552 20.209C31.5552 19.8044 31.2273 19.4766 30.8228 19.4766H24.3493C23.9448 19.4766 23.6169 19.8044 23.6169 20.209C23.6169 20.6136 23.9448 20.9414 24.3493 20.9414Z" fill="white"/>
<path d="M6.41779 28.0142H30.8228C31.2273 28.0142 31.5552 27.6863 31.5552 27.2817C31.5552 26.8771 31.2273 26.5493 30.8228 26.5493H6.41779C6.01329 26.5493 5.68536 26.8771 5.68536 27.2817C5.68536 27.6863 6.01329 28.0142 6.41779 28.0142Z" fill="white"/>
<path d="M6.41779 32.1665H30.8228C31.2273 32.1665 31.5552 31.8387 31.5552 31.4341C31.5552 31.0295 31.2273 30.7017 30.8228 30.7017H6.41779C6.01329 30.7017 5.68536 31.0295 5.68536 31.4341C5.68536 31.8387 6.01329 32.1665 6.41779 32.1665Z" fill="white"/>
<path d="M6.41779 36.3188H30.8228C31.2273 36.3188 31.5552 35.991 31.5552 35.5864C31.5552 35.1818 31.2273 34.854 30.8228 34.854H6.41779C6.01329 34.854 5.68536 35.1818 5.68536 35.5864C5.68536 35.991 6.01329 36.3188 6.41779 36.3188Z" fill="white"/>
</g>
<defs>
<clipPath id="clip0">
<rect width="50" height="50" fill="white"/>
</clipPath>
</defs>
</svg>
