<svg width="197" height="96" viewBox="0 0 197 96" fill="none" xmlns="http://www.w3.org/2000/svg">
<path d="M90.2707 54.8116C87.2944 58.844 85.2782 62.3004 84.03 65.0847C83.358 66.8128 83.0699 67.869 83.358 68.349C83.454 68.541 83.646 68.7331 83.838 68.7331C84.7021 69.0211 86.0463 68.157 87.8704 66.0448C88.6385 65.1807 89.7906 63.8365 91.1348 61.9163C91.3268 61.6283 91.5188 61.6283 91.8069 61.8203C91.9989 62.0123 91.9989 62.2044 91.9029 62.4924C90.7508 63.9325 89.6946 65.2767 88.7345 66.5248C87.0064 68.541 85.4702 69.5971 84.3181 69.5971C82.9739 69.5971 82.0138 69.0211 81.4378 67.965C81.0537 67.1969 80.9577 66.3328 81.2458 65.3727C78.9415 68.253 76.9253 69.6932 75.3891 69.6932C74.141 69.6932 73.1809 69.1171 72.6049 68.061C71.5488 66.0448 71.8368 63.6445 73.3729 60.9562C74.429 59.2281 75.8692 57.6919 77.7894 56.3478C79.7096 55.0036 81.5338 54.3315 83.0699 54.3315C84.2221 54.3315 85.0862 54.7156 85.3742 55.4837C85.7582 56.1557 85.5662 57.0198 84.8941 58.0759C86.3343 56.3478 87.3904 55.2916 88.0625 55.0996C88.7345 54.8116 89.4066 54.7156 90.2707 54.8116ZM83.838 55.0996C82.0138 55.0996 79.6136 57.4039 76.5413 62.1084C74.6211 65.0847 73.949 67.1969 74.5251 68.445C74.6211 68.637 74.8131 68.8291 75.1011 68.9251C75.6772 69.1171 76.7333 68.541 78.1734 67.1009C79.6136 65.6607 80.9577 63.9326 82.2059 61.8203C84.2221 58.364 84.9902 56.2517 84.7021 55.6757C84.6061 55.2916 84.2221 55.0996 83.838 55.0996Z" fill="white"/>
<path fill-rule="evenodd" clip-rule="evenodd" d="M103.04 50.683C103.04 50.683 102.848 50.7791 102.272 50.8751C101.216 50.9711 100.256 51.5471 99.3915 52.4112C97.5673 54.5234 95.9351 57.3077 94.495 60.7641C95.4551 59.42 96.6072 58.1718 98.1434 56.8277C100.064 55.0995 101.6 54.3314 102.752 54.3314C103.616 54.3314 104.384 54.8115 104.864 55.8676C105.344 56.8277 105.536 57.9798 105.44 59.324C105.344 60.6681 104.96 61.9162 104.288 62.9723C101.408 67.4848 98.2394 69.693 94.783 69.693C94.2069 69.693 93.5349 69.501 92.9588 69.213C92.5748 69.021 92.2867 68.7329 92.0947 68.4449C91.9027 68.1569 91.9027 67.9649 92.0947 67.9649C92.2867 67.9649 92.4788 68.0609 92.7668 68.3489C93.1508 68.7329 93.6309 68.925 94.1109 68.925C95.167 69.021 96.1271 68.6369 97.0872 67.6768C97.9513 66.7167 99.2955 64.7005 101.12 61.6282C103.04 58.3638 103.712 56.4437 103.424 55.6756C103.328 55.4836 103.04 55.2915 102.752 55.2915C101.696 55.2915 100.064 56.3476 97.8553 58.5559C96.2231 60.2841 94.783 62.0122 93.6309 63.8364C93.7269 63.8364 93.7269 63.9324 93.6309 63.9324L93.5349 64.0284C93.3428 64.3165 93.2468 64.5085 93.0548 64.7965C88.8304 71.9013 84.0299 85.2467 81.7256 92.7354C81.5336 93.5035 81.2456 94.3676 81.0536 95.0397C80.8615 95.7118 80.5735 95.9998 80.1895 95.9998C79.6134 95.9998 79.2294 95.7118 78.9413 95.1357C78.1733 93.5995 78.9413 89.7591 81.4376 83.8065C84.894 75.5496 88.4463 66.8127 92.7668 59.0359C94.591 55.6756 96.6072 53.2753 98.6234 51.6431C99.6795 50.7791 100.832 50.395 102.176 50.395C102.656 50.395 103.04 50.491 103.04 50.683Z" fill="white"/>
<path d="M109.183 59.0361C110.143 57.308 111.007 56.1558 111.968 55.3878C112.928 54.8117 114.176 54.6197 115.904 54.6197C114.368 56.0598 112.64 58.8441 110.719 62.9726C111.488 62.0125 112.928 60.4763 115.136 58.2681C118.304 55.3878 120.896 54.1396 123.009 54.3316C124.353 54.4277 125.217 55.0997 125.505 56.0598C125.601 56.5399 125.505 56.8279 125.121 57.0199C125.025 57.0199 124.545 56.8279 123.681 56.3479C123.201 56.0598 122.625 55.9638 122.049 55.8678C120.032 55.7718 118.4 56.5399 116.96 58.076C116.48 59.2282 116.288 61.1484 116.672 63.6446C116.864 65.2768 117.248 66.5249 117.632 67.293C118.016 67.9651 118.4 68.3491 119.072 68.3491C119.648 68.3491 120.608 67.677 122.049 66.2369C122.913 65.0848 123.969 63.7406 125.313 62.1085C125.409 61.9164 125.601 61.9164 125.889 62.0125C126.177 62.2045 126.177 62.3965 126.081 62.6845C124.929 64.3167 123.777 65.6608 122.721 66.813C120.704 69.0212 118.976 69.9813 117.728 69.7893C116.768 69.6933 116 69.0212 115.424 67.9651C115.04 67.293 114.752 66.3329 114.56 65.0848C114.176 63.1646 114.176 61.5324 114.464 60.0923C114.08 60.4763 113.408 61.0524 112.64 61.9164C111.295 63.3566 110.335 64.6047 109.855 65.4688C109.087 67.389 108.511 68.9252 108.319 70.0773C107.839 70.0773 107.359 69.5972 106.879 68.7332C106.783 68.5411 106.687 68.2531 106.687 68.0611C106.399 65.8529 107.263 62.8765 109.183 59.0361Z" fill="white"/>
<path d="M136.835 55.7717C137.699 57.4999 137.219 59.9961 135.491 63.0685C132.899 67.4849 130.307 69.6932 127.81 69.6932C126.178 69.6932 125.026 68.9251 124.258 67.3889C123.202 65.2767 123.394 62.8764 125.026 60.1882C125.986 58.46 127.426 57.0198 129.25 55.9637C130.979 54.9076 132.515 54.3315 134.051 54.3315C135.395 54.3315 136.355 54.8116 136.835 55.7717ZM134.915 55.0036C132.995 55.0036 130.691 57.4039 128.098 62.1084C126.37 65.0847 125.794 67.1969 126.37 68.253C126.658 68.8291 127.042 69.0211 127.714 69.0211C129.25 69.0211 131.459 66.6208 134.339 61.7243C136.067 58.748 136.643 56.6358 136.067 55.4837C135.683 55.1956 135.395 55.0036 134.915 55.0036Z" fill="white"/>
<path d="M153.828 52.7956C152.868 52.9876 151.812 53.0836 150.564 53.0836C150.18 52.8916 150.084 52.6036 150.276 52.5075C151.62 52.6036 152.676 52.4115 153.348 52.0275C154.788 51.5474 156.709 49.6272 159.109 46.1709C160.069 44.9228 160.453 43.6746 160.261 42.3305C159.973 41.4664 159.109 40.9863 157.861 40.9863C156.997 40.9863 155.845 41.6584 154.404 43.0026C149.796 47.8991 145.956 53.5637 142.691 59.8043C146.148 56.2519 148.932 54.4277 151.044 54.4277C152.1 54.4277 152.868 54.9078 153.348 55.8679C154.212 57.5961 153.732 59.9003 151.812 62.8766C148.932 67.3891 145.572 69.6933 141.539 69.6933C139.715 69.6933 138.371 69.0213 137.795 67.6771C136.835 65.7569 137.603 62.6846 140.003 58.3642C143.075 52.7956 146.916 47.8031 151.428 43.6746C154.02 41.3704 156.229 40.2183 157.861 40.2183C159.781 40.2183 161.029 40.9863 161.701 42.3305C162.373 43.5786 161.989 45.3068 160.549 47.515C158.341 50.6834 156.037 52.4115 153.828 52.7956ZM151.044 55.1958C149.22 55.1958 146.436 57.212 142.595 61.1485C141.347 62.4926 140.483 63.8367 140.003 65.2769C139.523 66.717 139.523 67.7731 140.099 68.3492C140.483 68.7332 140.867 68.9253 141.443 68.9253C142.499 68.9253 143.651 68.3492 144.803 67.1971C145.572 66.333 146.82 64.7008 148.548 62.2046C149.316 61.0524 150.084 59.9963 150.852 58.8442C151.908 57.212 152.292 56.1559 152.004 55.5799C151.812 55.3878 151.524 55.1958 151.044 55.1958Z" fill="white"/>
<path d="M158.726 61.9165C160.07 60.8603 161.415 60.2843 162.855 60.2843C164.775 60.3803 165.639 61.6284 165.543 64.2207C164.967 66.1409 163.911 67.6771 162.375 68.8292C161.511 69.4052 160.07 69.7893 157.862 69.7893C156.422 69.7893 155.462 69.3092 154.982 68.2531C154.214 66.6209 154.502 64.5087 155.942 61.9165C157.766 58.4601 159.59 56.2519 161.222 55.1957C161.895 54.8117 162.855 54.6197 164.007 54.7157C160.934 58.8441 159.206 61.2444 158.726 61.9165ZM158.63 62.9726C157.094 65.6608 156.614 67.485 157.094 68.5411C157.286 68.9252 157.574 69.0212 157.958 69.0212C159.59 68.8292 160.838 68.2531 161.799 67.389C162.951 66.1409 163.623 65.0848 163.815 64.0287C164.007 62.3005 163.527 61.4364 162.279 61.4364C161.607 61.2444 160.358 61.8204 158.63 62.9726ZM176.104 54.6197C173.032 58.8441 170.919 62.3005 169.767 65.0848C169.095 66.717 168.903 67.8691 169.191 68.4451C169.383 68.8292 169.671 68.9252 170.055 68.9252C171.016 68.9252 172.36 68.1571 173.896 66.5249C175.24 65.1808 176.488 63.6446 177.544 62.2045C177.832 62.0125 178.024 61.9164 178.216 62.0125C178.504 62.2045 178.504 62.3965 178.312 62.5885C177.544 63.9327 176.296 65.4688 174.664 67.101C172.936 68.8292 171.4 69.6933 169.959 69.6933C168.519 69.6933 167.559 69.2132 167.079 68.1571C166.311 66.5249 166.599 64.4127 168.039 61.8204C169.863 58.3641 171.688 56.1558 173.32 55.0997C173.896 54.7157 174.856 54.5237 176.104 54.6197Z" fill="white"/>
<path d="M194.058 54.5238C191.274 58.5563 189.258 62.1086 188.01 65.0849C187.241 66.9091 187.049 68.0612 187.241 68.4453C187.337 68.6373 187.433 68.7333 187.721 68.8293C188.586 69.1174 189.93 68.3493 191.658 66.3331C191.658 66.2371 192.81 64.8929 195.018 62.1086C195.21 61.9166 195.498 61.9166 195.69 62.0126C195.978 62.2046 195.978 62.3967 195.786 62.5887C195.018 63.7408 193.962 65.0849 192.522 66.7171C190.698 68.7333 189.258 69.6934 188.202 69.6934C186.857 69.5974 185.897 69.0214 185.321 68.0613C184.937 67.2932 184.841 66.3331 185.033 65.277C184.745 65.757 184.361 66.2371 183.881 66.8131C182.057 68.7333 180.521 69.7894 179.273 69.7894C178.024 69.7894 177.16 69.3094 176.68 68.3493C175.816 66.6211 176.104 64.5089 177.64 61.8206C179.081 59.1323 180.905 57.1161 183.017 55.5799C183.689 55.0999 184.745 54.9079 186.185 55.0039C182.825 58.9403 180.617 62.3967 179.465 65.277C178.793 67.1012 178.505 68.1573 178.697 68.6373C178.793 68.8293 178.985 69.0214 179.177 69.0214C180.137 69.4054 181.481 68.5413 183.305 66.5251C184.169 65.565 185.129 64.0288 186.377 61.9166C188.202 58.5563 189.93 56.348 191.562 55.1959C191.85 54.6198 192.81 54.4278 194.058 54.5238ZM185.897 48.2832C185.801 47.9952 185.801 47.8991 185.993 47.8991C186.185 47.8991 186.377 47.9952 186.665 48.1872C187.337 48.7632 188.202 49.7233 189.258 51.0675C191.658 49.5313 193.578 48.4752 195.018 47.9952C195.402 47.8031 195.69 47.8031 195.786 48.0912C196.17 48.2832 196.17 48.4752 195.882 48.5712C193.674 50.1074 191.658 51.6435 189.93 53.1797C189.642 53.4677 189.45 53.5637 189.258 53.5637C188.97 53.5637 188.778 53.3717 188.49 52.8917C187.914 51.3555 186.953 49.8193 185.897 48.2832Z" fill="white"/>
<path d="M84.3183 28.2168C81.15 32.1532 77.6936 38.0098 73.9492 45.8826C70.9729 52.0273 68.6687 58.556 66.9405 65.4687C66.6525 66.6208 66.3644 67.7729 66.0764 68.9251C65.7884 69.8852 65.4043 70.3652 64.9243 70.3652C64.2522 70.4612 63.6762 69.9812 63.2921 69.0211C62.332 66.7168 63.3881 61.1482 66.4604 52.2193C68.0926 48.1869 69.7248 44.6345 71.453 41.7542C76.8295 32.5373 81.63 26.6806 85.7585 24.2804C88.2547 23.0323 90.463 22.6482 92.3832 23.2243C92.8632 23.3203 93.2472 23.5123 93.6313 23.8964C94.0153 24.1844 94.2073 24.4724 94.1113 24.7604C94.1113 24.9525 93.8233 25.0485 93.1512 25.0485C91.9991 24.8565 91.327 24.7604 91.135 24.7604C88.9268 24.2804 86.6226 25.4325 84.3183 28.2168Z" fill="white"/>
<path d="M77.9812 15.9276C65.6919 13.3354 52.7305 12.0872 39.1931 12.0872C32.2804 12.0872 26.5198 13.2394 21.9113 15.4476C16.5347 18.0399 14.1345 21.6882 14.7106 26.3927C14.9026 27.9289 15.3826 29.081 16.2467 30.1371C15.9587 30.2331 15.7667 30.4251 15.4786 30.5212C14.4225 29.177 13.8465 27.6409 13.6544 26.0087C12.9824 20.2481 15.6707 15.8316 21.9113 12.6633C26.8078 10.2631 32.6644 9.01492 39.4812 9.01492C51.2904 9.01492 64.6358 10.7431 79.2293 14.1995C81.3415 11.9912 83.3577 10.5511 85.374 9.87901C86.4301 9.49497 87.0061 9.49497 87.1021 9.87901C87.1982 10.167 86.9101 10.4551 86.142 10.7431C84.5099 11.3192 82.9737 12.5673 81.5336 14.5835C88.8303 15.4476 108.416 16.4077 114.561 11.7032C118.017 9.11093 119.073 5.46255 117.921 3.15831C117.057 1.43013 114.561 0.278011 113.409 2.29422C112.545 3.63836 114.561 5.17452 115.137 3.54235C114.657 3.44634 115.137 3.73437 114.561 3.73437C113.601 3.83038 113.505 2.96629 113.889 2.39023C114.273 1.91018 115.041 1.71816 115.713 2.58225C116.289 3.25432 116.001 4.31043 115.425 4.79048C113.601 6.32664 111.297 3.54235 112.257 1.71816C113.505 -0.586079 116.673 -0.394059 118.305 1.23811C121.666 4.69447 120.706 9.87901 116.193 13.1433C108.32 18.9039 88.7343 16.9837 80.0934 16.1197C76.061 21.6882 71.3565 29.081 65.9799 38.298C65.2118 39.8341 64.3478 41.3703 63.4837 43.0025C57.435 55.0997 50.1383 63.8366 41.4974 69.3092C35.3527 73.2456 28.92 75.2618 22.1993 75.4538C17.7829 75.6459 13.6544 74.6857 10.0061 72.7655C5.49359 70.3653 2.51728 66.7169 1.07713 61.6284C-1.80317 51.5473 1.07713 42.7144 9.91006 35.1296C11.4462 33.7855 13.4624 32.4414 15.9587 31.0012C16.3427 30.9052 16.6308 30.7132 16.9188 30.5212C23.6395 27.3528 30.6482 25.9127 38.041 26.1047C40.7293 26.2007 43.2255 26.6808 45.6258 27.8329C48.2181 29.081 50.1383 30.7132 51.3864 32.7294C55.6108 32.9214 59.4512 33.9775 63.0036 36.0897L62.5236 36.7618C59.6433 35.0336 56.0909 33.9775 51.7704 33.5935C51.4824 33.5935 51.1944 33.4975 50.8103 33.4975C50.7143 33.4975 50.7143 33.4975 50.6183 33.4975C41.8814 33.4975 33.5285 35.9937 25.7517 41.0823C22.5834 43.0985 19.8951 45.6907 17.6869 48.7631C14.9026 52.5074 13.7505 55.8678 14.3265 59.0361C14.7106 60.8603 15.5746 62.3965 17.1108 63.6446C18.647 64.7967 20.2791 65.4688 22.0073 65.4688C26.9998 65.4688 32.7605 62.7805 39.0971 57.5C42.9375 54.3316 46.0098 50.6833 48.5061 46.5548C51.0984 42.1384 52.0585 38.394 51.3864 35.4177C51.2904 35.0336 51.1944 34.7456 51.0024 34.3616C51.2904 34.2655 51.6744 34.2655 51.9625 34.2655C52.1545 34.8416 52.3465 35.2256 52.3465 35.6097C53.1146 38.97 52.1545 42.9064 49.6582 47.3229C47.354 51.3553 44.1856 55.0037 40.1532 58.4601C33.6245 63.7406 27.6719 66.3329 22.2954 66.3329C20.1831 66.3329 18.2629 65.7568 16.5347 64.5087C14.6145 63.0685 13.4624 61.1483 12.9824 58.7481C12.4063 55.4838 13.4624 51.8354 16.3427 47.899C18.839 44.3466 21.8153 41.5623 25.2717 39.5461C30.1682 36.5698 34.8727 34.6496 39.1931 33.5935C42.0734 33.0174 45.6258 32.6334 49.8502 32.6334C47.546 29.081 43.6096 27.2568 38.137 27.2568C29.3041 27.2568 20.8552 30.6172 12.7904 37.3379C8.66193 40.7942 5.68561 44.8266 3.6694 49.4351C1.65319 54.0436 1.26915 58.172 2.42127 61.9164C3.76541 66.5249 6.4537 69.7892 10.4861 71.9015C13.6544 73.6296 17.2068 74.3977 21.1432 74.3017C38.329 73.9177 53.2106 52.3154 61.9475 38.0099C62.4276 37.3379 62.7156 36.9538 63.0036 36.2818L63.0996 36.3778C66.1719 31.0012 71.1645 24.1845 77.9812 15.9276Z" fill="white"/>
<path fill-rule="evenodd" clip-rule="evenodd" d="M109.378 33.3056C109.666 31.1933 110.53 29.1771 110.914 27.1609C111.874 22.3604 112.258 22.9365 110.242 22.3604L107.937 32.7295L109.378 33.3056ZM114.562 15.7357C115.426 15.7357 116.002 16.5038 116.002 17.3679C116.002 17.944 115.618 18.424 115.042 18.712C115.81 19.5761 117.827 22.0724 118.499 22.4564L118.883 31.7694C119.171 34.1697 119.843 32.2495 119.843 34.1697C119.459 35.1298 117.25 34.5537 115.522 36.2819C114.562 37.242 114.178 37.53 113.026 38.0101C115.042 41.5624 109.858 41.0824 112.258 37.9141C110.146 36.7619 110.818 36.5699 109.666 35.2258C108.706 34.2657 106.785 34.1697 106.113 33.1136C106.401 31.2894 106.977 33.0175 107.553 30.9053L109.186 21.5923C110.338 20.8243 112.546 19.2881 113.794 18.52C113.314 18.232 112.93 17.7519 112.93 17.0799C113.026 16.3118 113.794 15.6397 114.562 15.7357ZM116.77 33.8816C117.538 33.8816 117.923 33.6896 118.403 33.2096L117.538 22.7445L116.002 23.2245C116.29 26.7769 116.578 30.3293 116.77 33.8816ZM110.146 33.5936C112.546 34.2657 113.506 34.3617 116.002 33.9776L115.522 23.1285L112.258 22.8405C111.586 26.4889 110.818 30.0412 110.146 33.5936Z" fill="white"/>
<path d="M98.4311 75.4537C98.5271 75.4537 98.5271 75.4537 98.5271 75.4537V75.5497L97.663 79.5822H98.4311C98.7191 79.5822 99.0072 79.4862 99.1992 79.2941C99.3912 79.1021 99.5832 78.8141 99.7753 78.334L100.255 77.2779C100.447 76.7979 100.639 76.4138 100.831 76.2218C100.927 76.0298 101.119 75.8378 101.311 75.7418C101.503 75.6458 101.599 75.5497 101.791 75.4537C101.983 75.3577 102.176 75.3577 102.464 75.2617H102.656C102.752 75.2617 102.752 75.2617 102.848 75.2617L102.944 75.3577L103.04 76.0298C103.04 76.1258 103.04 76.1258 103.04 76.2218C103.04 76.2218 102.944 76.3178 102.848 76.3178H102.656C102.464 76.3178 102.368 76.4138 102.272 76.4138C102.176 76.4138 102.079 76.5098 102.079 76.5098C101.983 76.6059 101.887 76.7019 101.791 76.8939C101.695 77.0859 101.599 77.2779 101.407 77.566L101.023 78.334C100.831 78.8141 100.543 79.1981 100.351 79.3901C100.159 79.6782 99.8713 79.8702 99.5832 79.9662C99.7753 80.0622 99.9673 80.2542 100.159 80.4463C100.255 80.6383 100.351 80.9263 100.447 81.2143L100.639 83.1345C100.639 83.4226 100.735 83.6146 100.735 83.7106C100.735 83.8066 100.735 83.8066 100.831 83.9026C100.831 83.9986 100.927 83.9986 101.023 84.0946C101.119 84.0946 101.215 84.1906 101.311 84.1906H101.599C101.695 84.1906 101.695 84.1906 101.791 84.2867V84.3827L101.503 85.0547C101.407 85.1507 101.407 85.1507 101.311 85.1507C101.215 85.1507 101.119 85.1507 100.927 85.1507H100.735C100.447 85.0547 100.255 85.0547 100.159 84.9587C99.9673 84.8627 99.8713 84.7667 99.7753 84.5747C99.6792 84.4787 99.6792 84.3827 99.5832 84.2867C99.5832 84.1906 99.4872 83.8066 99.4872 83.1345L99.3912 81.6944C99.2952 81.2143 99.2952 80.9263 99.1032 80.7343C99.0072 80.5423 98.7191 80.4463 98.3351 80.4463H97.567L96.6069 84.8627C96.6069 84.9587 96.6069 84.9587 96.5109 84.9587H96.4149H95.6468C95.5508 84.9587 95.5508 84.9587 95.5508 84.9587C95.5508 84.9587 95.5508 84.8627 95.5508 84.7667L96.5109 80.3502H95.7428C95.4548 80.3502 95.1668 80.4463 94.9748 80.5423C94.7827 80.6383 94.4947 81.0223 94.3027 81.5024L93.6306 82.9425C93.3426 83.6146 93.1506 83.9026 93.0545 84.0946C92.9585 84.1906 92.8625 84.2867 92.7665 84.3827C92.5745 84.5747 92.3825 84.6707 92.1905 84.7667C91.9984 84.8627 91.7104 84.9587 91.4224 84.9587H91.2304C91.0383 84.9587 90.9423 84.9587 90.8463 84.9587L90.7503 84.8627L90.6543 84.5747C90.6543 84.4787 90.6543 84.4787 90.7503 84.3827C90.7503 84.3827 90.8463 84.2867 90.9423 84.2867H91.2304C91.3264 84.2867 91.4224 84.2867 91.5184 84.1906C91.6144 84.1906 91.7104 84.0946 91.8064 83.9986C91.9024 83.9026 91.9024 83.9026 91.9984 83.8066C92.0944 83.7106 92.1905 83.5186 92.2865 83.3266L93.2466 81.4064C93.4386 81.1183 93.6306 80.8303 93.8226 80.6383C94.0147 80.4463 94.3027 80.2542 94.6867 80.1582C94.4947 80.0622 94.3027 79.8702 94.2067 79.6782C94.1107 79.4862 94.0147 79.1021 94.0147 78.5261L93.9186 77.758C93.8226 77.1819 93.8226 76.8939 93.8226 76.8939C93.8226 76.7979 93.8226 76.7979 93.7266 76.7019C93.6306 76.6059 93.6306 76.6059 93.5346 76.5098C93.4386 76.5098 93.3426 76.4138 93.2466 76.4138H93.0545C92.9585 76.4138 92.9585 76.4138 92.8625 76.3178C92.8625 76.3178 92.8625 76.2218 92.8625 76.1258L93.1506 75.4537C93.1506 75.3577 93.2466 75.3577 93.2466 75.3577C93.2466 75.3577 93.3426 75.3577 93.4386 75.3577H93.5346C93.8226 75.4537 94.0147 75.4537 94.2067 75.5497C94.3027 75.6458 94.4947 75.7418 94.5907 75.8378C94.6867 75.9338 94.6867 76.1258 94.7827 76.3178C94.7827 76.5098 94.8787 76.8939 94.8787 77.3739L94.9748 78.43C94.9748 79.0061 95.0708 79.2941 95.2628 79.4862C95.4548 79.6782 95.7428 79.6782 96.0309 79.6782H96.6069L97.471 75.6458C97.471 75.5497 97.471 75.5497 97.567 75.5497C97.567 75.5497 97.663 75.5497 97.759 75.5497H98.4311V75.4537ZM109.472 78.334L108.416 83.3266C108.32 83.5186 108.32 83.6146 108.32 83.7106C108.32 83.8066 108.32 83.9026 108.32 83.9026C108.32 83.9986 108.32 84.0946 108.32 84.0946C108.32 84.1906 108.32 84.2867 108.416 84.3827C108.416 84.4787 108.416 84.5747 108.512 84.6707C108.512 84.7667 108.608 84.7667 108.608 84.8627V84.9587C108.608 84.9587 108.512 84.9587 108.512 85.0547L107.936 85.3428C107.84 85.3428 107.744 85.3428 107.648 85.2468C107.552 85.1507 107.552 84.9587 107.552 84.6707C107.552 84.5747 107.552 84.5747 107.552 84.4787C107.552 84.3827 107.552 84.2867 107.552 84.1906V84.0946C107.264 84.5747 106.88 84.8627 106.4 85.0547C105.92 85.2468 105.536 85.4388 105.056 85.4388C104.576 85.4388 104.192 85.3428 103.904 85.0547C103.616 84.7667 103.52 84.3827 103.52 83.9986C103.52 83.9026 103.52 83.8066 103.52 83.8066C103.52 83.8066 103.616 83.6146 103.712 83.2305L104.672 78.8141C104.672 78.7181 104.672 78.6221 104.768 78.6221C104.768 78.6221 104.864 78.6221 104.864 78.5261L105.632 78.334C105.728 78.334 105.728 78.334 105.824 78.334C105.824 78.334 105.824 78.334 105.824 78.43L104.864 82.9425C104.768 83.4226 104.672 83.7106 104.672 83.7106V83.8066C104.672 84.0946 104.768 84.2867 104.864 84.3827C104.96 84.4787 105.152 84.5747 105.44 84.5747C105.632 84.5747 105.92 84.4787 106.208 84.3827C106.496 84.2867 106.688 84.0946 106.88 83.9986C107.168 83.8066 107.36 83.5186 107.456 83.2305C107.648 82.9425 107.744 82.4625 107.84 81.8864L108.512 78.7181C108.512 78.6221 108.512 78.5261 108.608 78.5261C108.608 78.5261 108.704 78.5261 108.704 78.43L109.472 78.238C109.28 78.142 109.376 78.238 109.472 78.334C109.472 78.238 109.472 78.238 109.472 78.334ZM116.385 78.6221L114.945 85.0547C114.945 85.1507 114.945 85.1507 114.849 85.1507H114.753H114.081C113.985 85.1507 113.985 85.1507 113.985 85.1507C113.985 85.1507 113.985 85.0547 113.985 84.9587L115.233 79.1981H113.409V79.2941C113.217 79.9662 113.121 80.5423 112.929 81.2143C112.737 81.7904 112.641 82.2704 112.545 82.6545C112.353 83.1345 112.161 83.5186 111.969 83.9026C111.777 84.1907 111.584 84.4787 111.296 84.6707C111.104 84.8627 110.816 85.0547 110.528 85.1507C110.24 85.2468 110.048 85.2468 109.76 85.2468C109.664 85.2468 109.664 85.2468 109.664 85.2468L109.568 85.1507V84.5747C109.568 84.4787 109.568 84.4787 109.664 84.3827C109.664 84.3827 109.76 84.2867 109.856 84.2867H109.952C110.336 84.2867 110.528 84.0946 110.816 83.9026C111.008 83.7106 111.2 83.3266 111.392 82.9425C111.584 82.4625 111.777 81.8864 111.969 81.1183C112.161 80.3502 112.353 79.6782 112.545 78.8141L112.641 78.334C112.641 78.238 112.641 78.238 112.737 78.142C112.737 78.142 112.833 78.142 112.929 78.046H116.385C116.481 78.046 116.481 78.046 116.481 78.142C116.385 78.43 116.385 78.5261 116.385 78.6221ZM121.09 78.238C121.762 78.238 122.338 78.43 122.722 78.9101C123.106 79.2941 123.298 79.8702 123.298 80.6383C123.298 81.2143 123.202 81.6944 123.106 82.2704C122.914 82.8465 122.722 83.3266 122.434 83.8066C122.05 84.2867 121.666 84.7667 121.186 85.0547C120.705 85.3428 120.129 85.4388 119.553 85.4388C118.881 85.4388 118.305 85.2468 117.921 84.8627C117.537 84.4787 117.345 83.9026 117.345 83.0385C117.345 82.4625 117.441 81.7904 117.633 81.3103C117.825 80.7343 118.017 80.2542 118.305 79.7742C118.689 79.2941 119.073 78.8141 119.553 78.6221C120.033 78.334 120.513 78.238 121.09 78.238ZM122.146 80.6383C122.146 80.1582 122.05 79.7742 121.762 79.4862C121.57 79.1981 121.186 79.1021 120.801 79.1021C120.417 79.1021 120.033 79.1981 119.745 79.3901C119.457 79.5822 119.169 79.8702 118.977 80.2542C118.785 80.6383 118.593 81.0223 118.497 81.5024C118.401 81.9824 118.305 82.4625 118.305 82.9425C118.305 83.4226 118.401 83.8066 118.593 84.0946C118.785 84.3827 119.073 84.4787 119.553 84.4787C119.937 84.4787 120.225 84.3827 120.513 84.1906C120.801 83.9986 121.089 83.7106 121.282 83.3266C121.474 82.9425 121.666 82.5585 121.762 81.9824C122.146 81.5024 122.146 81.0223 122.146 80.6383ZM130.594 78.334L129.538 83.3266C129.442 83.5186 129.442 83.6146 129.442 83.7106C129.442 83.8066 129.442 83.9026 129.442 83.9026C129.442 83.9986 129.442 84.0946 129.442 84.0946C129.442 84.1906 129.442 84.2867 129.538 84.3827C129.538 84.4787 129.538 84.5747 129.634 84.6707C129.634 84.7667 129.73 84.7667 129.73 84.8627V84.9587C129.73 84.9587 129.634 84.9587 129.634 85.0547L129.058 85.3428C128.962 85.3428 128.866 85.3428 128.77 85.2468C128.674 85.1507 128.674 84.9587 128.674 84.6707C128.674 84.5747 128.674 84.5747 128.674 84.4787C128.674 84.3827 128.674 84.2867 128.674 84.1906V84.0946C128.386 84.5747 128.002 84.8627 127.522 85.0547C127.042 85.2468 126.658 85.4388 126.178 85.4388C125.698 85.4388 125.314 85.3428 125.026 85.0547C124.738 84.7667 124.642 84.3827 124.642 83.9986C124.642 83.9026 124.642 83.8066 124.642 83.8066C124.642 83.8066 124.738 83.6146 124.834 83.2305L125.794 78.8141C125.794 78.7181 125.794 78.6221 125.89 78.6221C125.89 78.6221 125.986 78.6221 125.986 78.5261L126.754 78.334C126.85 78.334 126.85 78.334 126.946 78.334C126.946 78.334 126.946 78.334 126.946 78.43L125.986 82.9425C125.89 83.4226 125.794 83.7106 125.794 83.7106V83.8066C125.794 84.0946 125.89 84.2867 125.986 84.3827C126.082 84.4787 126.274 84.5747 126.562 84.5747C126.754 84.5747 127.042 84.4787 127.33 84.3827C127.618 84.2867 127.81 84.0946 128.002 83.9986C128.29 83.8066 128.482 83.5186 128.578 83.2305C128.77 82.9425 128.866 82.4625 128.962 81.8864L129.634 78.7181C129.634 78.6221 129.634 78.5261 129.73 78.5261C129.73 78.5261 129.826 78.5261 129.826 78.43L130.594 78.238C130.498 78.142 130.498 78.238 130.594 78.334C130.594 78.238 130.594 78.238 130.594 78.334ZM129.826 75.4537L130.402 75.5497C130.498 75.5497 130.498 75.5497 130.498 75.5497C130.498 75.5497 130.498 75.5497 130.498 75.6458C130.498 75.6458 130.498 75.7418 130.402 75.9338C130.306 76.0298 130.306 76.1258 130.21 76.2218C130.018 76.6059 129.73 76.7979 129.346 76.9899C128.962 77.1819 128.578 77.2779 128.194 77.2779C127.714 77.2779 127.33 77.1819 127.042 76.8939C126.754 76.6059 126.658 76.3178 126.658 75.8378C126.658 75.7418 126.658 75.6458 126.658 75.6458C126.658 75.5497 126.754 75.5497 126.85 75.5497L127.33 75.4537H127.426C127.426 75.4537 127.426 75.4537 127.522 75.4537H127.618V75.5497V75.7418C127.618 76.0298 127.714 76.1258 127.81 76.3178C127.906 76.4138 128.098 76.5098 128.386 76.5098C128.674 76.5098 128.866 76.4138 129.058 76.2218C129.25 76.0298 129.442 75.8378 129.538 75.4537C129.538 75.3577 129.538 75.3577 129.634 75.3577C129.73 75.4537 129.73 75.4537 129.826 75.4537ZM135.779 85.1507H135.011C134.915 85.1507 134.915 85.1507 134.915 85.1507C134.915 85.1507 134.915 85.1507 134.915 85.0547L136.355 78.5261C136.355 78.43 136.355 78.43 136.355 78.43C136.355 78.43 136.451 78.43 136.451 78.334L137.219 78.142C137.219 78.142 137.219 78.142 137.315 78.142C137.315 78.142 137.315 78.142 137.315 78.238C137.315 78.238 137.315 78.238 137.315 78.334L136.739 81.2143H137.603C137.795 81.2143 137.987 81.1183 138.179 81.0223C138.371 80.9263 138.467 80.7343 138.563 80.4463L138.851 79.6782C139.043 79.1981 139.235 78.9101 139.427 78.7181C139.619 78.5261 139.811 78.43 140.1 78.334C140.196 78.334 140.388 78.238 140.484 78.238C140.58 78.238 140.676 78.238 140.772 78.238H140.868C140.868 78.238 140.868 78.238 140.964 78.334V79.0061C140.964 79.1021 140.964 79.1021 140.964 79.1021C140.964 79.1021 140.868 79.1021 140.772 79.1981H140.58C140.388 79.1981 140.196 79.2941 140.196 79.3901C140.099 79.4862 140.003 79.6782 139.811 79.9662L139.523 80.5423C139.331 80.9263 139.139 81.1183 139.043 81.3103C138.851 81.5024 138.659 81.5984 138.371 81.6944C138.563 81.7904 138.755 81.8864 138.851 82.0784C138.947 82.2704 139.043 82.4625 139.043 82.7505L139.139 83.9026C139.139 84.0946 139.139 84.1906 139.235 84.2867C139.331 84.3827 139.427 84.3827 139.619 84.4787H139.811C139.907 84.4787 139.907 84.4787 139.907 84.4787V84.5747C139.907 84.5747 139.907 84.5747 139.907 84.6707L139.619 85.3428L139.523 85.4388C139.523 85.4388 139.427 85.4388 139.331 85.4388C139.235 85.4388 139.043 85.4388 138.947 85.4388C138.851 85.4388 138.755 85.3428 138.659 85.3428C138.467 85.2468 138.371 85.1508 138.275 84.9587C138.179 84.7667 138.083 84.4787 138.083 83.9026L137.987 82.9425C137.987 82.6545 137.891 82.4625 137.795 82.3665C137.699 82.2704 137.507 82.1744 137.219 82.1744H136.259L135.587 85.1507C135.587 85.1507 135.587 85.2468 135.491 85.2468C135.875 85.1507 135.779 85.1507 135.779 85.1507ZM145.284 78.238C145.956 78.238 146.532 78.43 146.916 78.9101C147.3 79.2941 147.492 79.8702 147.492 80.6383C147.492 81.2143 147.396 81.6944 147.3 82.2704C147.108 82.8465 146.916 83.3266 146.628 83.8066C146.244 84.2867 145.86 84.7667 145.38 85.0547C144.9 85.3428 144.324 85.4388 143.748 85.4388C143.076 85.4388 142.5 85.2468 142.116 84.8627C141.732 84.4787 141.54 83.9026 141.54 83.0385C141.54 82.4625 141.636 81.7904 141.828 81.3103C142.02 80.7343 142.212 80.2542 142.5 79.7742C142.884 79.2941 143.268 78.8141 143.748 78.6221C144.228 78.334 144.708 78.238 145.284 78.238ZM146.34 80.6383C146.34 80.1582 146.244 79.7742 145.956 79.4862C145.764 79.1981 145.38 79.1021 144.996 79.1021C144.612 79.1021 144.228 79.1981 143.94 79.3901C143.652 79.5822 143.364 79.8702 143.172 80.2542C142.98 80.6383 142.788 81.0223 142.692 81.5024C142.596 81.9824 142.5 82.4625 142.5 82.9425C142.5 83.4226 142.596 83.8066 142.788 84.0946C142.98 84.3827 143.268 84.4787 143.748 84.4787C144.132 84.4787 144.42 84.3827 144.708 84.1906C144.996 83.9986 145.284 83.7106 145.476 83.3266C145.668 82.9425 145.86 82.5585 145.956 81.9824C146.34 81.5024 146.34 81.0223 146.34 80.6383ZM151.333 78.5261L151.813 81.5984C151.813 81.7904 151.909 81.9824 151.909 82.0784C151.909 82.2704 151.909 82.3665 151.909 82.5585C151.909 82.4625 152.005 82.2704 152.101 82.0784C152.197 81.8864 152.293 81.6944 152.389 81.5984L154.213 78.5261L154.309 78.43H154.405H155.461H155.557C155.557 78.43 155.557 78.43 155.557 78.5261L154.501 85.0547C154.501 85.0547 154.501 85.1507 154.405 85.1507H154.309H153.445C153.349 85.1507 153.349 85.1507 153.349 85.1507C153.349 85.1507 153.349 85.1507 153.349 85.0547L154.213 80.1582C154.213 79.9662 154.309 79.8702 154.309 79.7742C154.309 79.7742 154.309 79.6782 154.309 79.5822C154.309 79.6782 154.213 79.6782 154.213 79.7742C154.213 79.8702 154.117 79.9662 154.021 80.0622L152.005 83.5186C152.005 83.6146 151.909 83.6146 151.909 83.6146H151.813H151.237C151.141 83.6146 151.141 83.6146 151.141 83.6146V83.5186L150.565 80.0622C150.565 79.9662 150.565 79.9662 150.565 79.8702C150.565 79.7742 150.565 79.6782 150.565 79.5822C150.565 79.6782 150.565 79.6782 150.565 79.7742C150.565 79.7742 150.565 79.9662 150.469 80.1582L149.22 85.0547C149.22 85.0547 149.22 85.1507 149.124 85.1507H149.028H148.164C148.068 85.1507 148.068 85.1507 148.068 85.1507C148.068 85.1507 148.068 85.1507 148.068 85.0547L149.893 78.5261C149.893 78.5261 149.893 78.43 149.989 78.43H150.085H151.141C151.237 78.43 151.237 78.43 151.333 78.5261C151.333 78.43 151.333 78.5261 151.333 78.5261ZM162.662 80.3502L161.606 85.0547C161.606 85.1507 161.606 85.1507 161.51 85.1507H161.414H160.646C160.55 85.1507 160.55 85.1507 160.55 85.1507C160.55 85.1507 160.55 85.0547 160.55 84.9587L161.606 80.2542C161.606 80.1582 161.606 80.0622 161.702 79.8702C161.702 79.7742 161.702 79.6782 161.702 79.5822C161.702 79.3902 161.606 79.2941 161.51 79.1981C161.414 79.1021 161.222 79.1021 161.03 79.0061C160.646 79.0061 160.358 79.1021 159.974 79.2941C159.59 79.4862 159.302 79.7742 159.109 80.1582C158.917 80.3502 158.821 80.6383 158.725 80.9263C158.629 81.2143 158.533 81.5024 158.437 81.6944L157.765 84.7667C157.765 84.8627 157.765 84.8627 157.669 84.8627H157.573H156.805C156.709 84.8627 156.709 84.8627 156.709 84.8627C156.709 84.8627 156.709 84.7667 156.709 84.6707L157.765 79.9662C157.765 79.7742 157.861 79.6782 157.861 79.4862C157.861 79.3901 157.861 79.1981 157.861 79.1021C157.861 79.0061 157.861 79.0061 157.861 78.9101C157.861 78.8141 157.861 78.7181 157.861 78.6221C157.765 78.43 157.765 78.334 157.765 78.334V78.238C157.765 78.238 157.861 78.238 157.861 78.142L158.437 77.854C158.533 77.854 158.533 77.854 158.629 77.854C158.629 77.854 158.725 77.95 158.725 78.142C158.725 78.238 158.725 78.334 158.821 78.43C158.821 78.5261 158.821 78.6221 158.821 78.7181C158.821 78.7181 158.821 78.8141 158.821 78.9101C158.821 79.0061 158.821 79.1021 158.821 79.1981V79.3901C159.11 78.9101 159.494 78.5261 159.974 78.334C160.454 78.046 160.934 77.95 161.414 77.95C161.894 77.95 162.182 78.046 162.374 78.238C162.566 78.43 162.758 78.7181 162.758 79.1021C162.758 79.1981 162.758 79.2941 162.758 79.3901C162.758 79.7742 162.758 79.9662 162.662 80.3502ZM169.959 78.6221L168.518 85.0547C168.518 85.1507 168.518 85.1507 168.422 85.1507H168.326H167.558C167.462 85.1507 167.462 85.1507 167.462 85.1507C167.462 85.1507 167.462 85.0547 167.462 84.9587L168.711 79.1981H166.886V79.2941C166.694 79.9662 166.598 80.5423 166.406 81.2143C166.214 81.7904 166.118 82.2704 166.022 82.6545C165.83 83.1345 165.638 83.5186 165.446 83.9026C165.254 84.1907 165.062 84.4787 164.774 84.6707C164.582 84.8627 164.294 85.0547 164.006 85.1507C163.718 85.2468 163.526 85.2468 163.238 85.2468C163.142 85.2468 163.142 85.2468 163.142 85.2468L163.046 85.1507V84.5747C163.046 84.4787 163.046 84.4787 163.142 84.3827C163.142 84.3827 163.238 84.2867 163.334 84.2867H163.43C163.814 84.2867 164.006 84.0946 164.294 83.9026C164.486 83.7106 164.678 83.3266 164.87 82.9425C165.062 82.4625 165.254 81.8864 165.446 81.1183C165.638 80.3502 165.83 79.6782 166.022 78.8141L166.118 78.334C166.118 78.238 166.118 78.238 166.214 78.142C166.214 78.142 166.31 78.142 166.406 78.046H169.863C169.959 78.046 169.959 78.046 169.959 78.142C169.959 78.43 169.959 78.5261 169.959 78.6221ZM175.623 83.8066L176.007 84.2867C176.007 84.2867 176.007 84.2867 176.007 84.3827C176.007 84.3827 176.007 84.4787 175.911 84.4787C175.815 84.5747 175.719 84.5747 175.623 84.6707C175.335 84.8627 174.951 85.0547 174.567 85.1507C174.183 85.2468 173.799 85.3428 173.415 85.3428C173.031 85.3428 172.647 85.2468 172.455 85.1507C172.167 85.0547 171.879 84.8627 171.687 84.6707C171.495 84.3827 171.303 84.1906 171.207 83.8066C171.111 83.5186 171.111 83.1345 171.111 82.7505C171.111 81.4064 171.495 80.3502 172.167 79.4862C172.935 78.6221 173.799 78.142 174.759 78.142C175.335 78.142 175.815 78.334 176.103 78.6221C176.487 78.9101 176.583 79.3901 176.679 79.9662C176.679 80.7343 176.295 81.3103 175.623 81.7904C174.951 82.2704 173.799 82.4625 172.263 82.4625H172.167C172.167 82.5585 172.167 82.5585 172.167 82.6545C172.167 82.7505 172.167 82.7505 172.167 82.8465C172.167 83.0385 172.167 83.2305 172.167 83.3266C172.167 83.5186 172.263 83.6146 172.263 83.7106C172.359 83.9026 172.551 84.0946 172.743 84.1906C172.935 84.2867 173.223 84.3827 173.511 84.3827C173.799 84.3827 174.087 84.2867 174.471 84.1906C174.855 84.0946 175.143 83.9026 175.431 83.7106C175.527 83.7106 175.527 83.6146 175.623 83.6146H175.719C175.527 83.7106 175.527 83.7106 175.623 83.8066C175.527 83.7106 175.623 83.7106 175.623 83.8066ZM172.167 81.5984C172.743 81.5984 173.223 81.5984 173.703 81.5024C174.183 81.4064 174.567 81.3103 174.855 81.1183C175.047 81.0223 175.239 80.8303 175.335 80.6383C175.431 80.4463 175.527 80.2542 175.527 80.0622C175.527 79.7742 175.431 79.4862 175.239 79.3901C175.047 79.1981 174.855 79.1021 174.471 79.1021C173.895 79.1021 173.415 79.2941 172.935 79.7742C172.647 80.1582 172.359 80.8303 172.167 81.5984ZM178.216 85.1507H177.447C177.351 85.1507 177.351 85.1507 177.351 85.1507C177.351 85.1507 177.351 85.1507 177.351 85.0547L178.792 78.5261C178.792 78.43 178.792 78.43 178.792 78.43C178.792 78.43 178.888 78.43 178.888 78.334L179.656 78.142C179.656 78.142 179.656 78.142 179.752 78.142C179.752 78.142 179.752 78.142 179.752 78.238C179.752 78.238 179.752 78.238 179.752 78.334L179.176 81.2143H180.04C180.232 81.2143 180.424 81.1183 180.616 81.0223C180.808 80.9263 180.904 80.7343 181 80.4463L181.288 79.6782C181.48 79.1981 181.672 78.9101 181.864 78.7181C182.056 78.5261 182.248 78.43 182.536 78.334C182.632 78.334 182.824 78.238 182.92 78.238C183.016 78.238 183.112 78.238 183.208 78.238H183.304C183.304 78.238 183.304 78.238 183.4 78.334V79.0061C183.4 79.1021 183.4 79.1021 183.4 79.1021C183.4 79.1021 183.304 79.1021 183.208 79.1981H183.016C182.824 79.1981 182.632 79.2941 182.632 79.3901C182.536 79.4862 182.44 79.6782 182.248 79.9662L181.96 80.5423C181.768 80.9263 181.576 81.1183 181.48 81.3103C181.288 81.5024 181.096 81.5984 180.808 81.6944C181 81.7904 181.192 81.8864 181.288 82.0784C181.384 82.2704 181.48 82.4625 181.48 82.7505L181.576 83.9026C181.576 84.0946 181.576 84.1906 181.672 84.2867C181.768 84.3827 181.864 84.3827 182.056 84.4787H182.248C182.344 84.4787 182.344 84.4787 182.344 84.4787V84.5747C182.344 84.5747 182.344 84.5747 182.344 84.6707L182.056 85.3428L181.96 85.4388C181.96 85.4388 181.864 85.4388 181.768 85.4388C181.672 85.4388 181.48 85.4388 181.384 85.4388C181.288 85.4388 181.192 85.3428 181.096 85.3428C180.904 85.2468 180.808 85.1508 180.712 84.9587C180.616 84.7667 180.52 84.4787 180.52 83.9026L180.424 82.9425C180.424 82.6545 180.328 82.4625 180.232 82.3665C180.136 82.2704 179.944 82.1744 179.656 82.1744H178.696L178.023 85.1507C178.023 85.1507 178.023 85.2468 177.927 85.2468C178.312 85.1507 178.312 85.1507 178.216 85.1507ZM189.449 78.9101L189.161 79.3901L189.065 79.4862C189.065 79.4862 189.065 79.4862 188.969 79.4862H188.873C188.873 79.4862 188.777 79.3901 188.681 79.3901C188.489 79.2941 188.393 79.2941 188.201 79.1981C188.009 79.1981 187.913 79.1021 187.721 79.1021C187.336 79.1021 186.952 79.1981 186.568 79.3901C186.28 79.5822 185.992 79.8702 185.8 80.2542C185.608 80.6383 185.416 81.0223 185.32 81.5984C185.224 82.0784 185.128 82.5585 185.128 83.0385C185.128 83.5186 185.224 83.8066 185.416 84.0946C185.608 84.3827 185.992 84.4787 186.376 84.4787C186.568 84.4787 186.76 84.4787 186.952 84.3827C187.144 84.3827 187.432 84.1907 187.817 83.9986C187.913 83.9026 188.009 83.9026 188.009 83.9026C188.009 83.9026 188.009 83.9026 188.105 83.9026C188.105 83.9026 188.105 83.9026 188.201 83.9026L188.393 84.3827C188.393 84.3827 188.393 84.3827 188.393 84.4787C188.393 84.4787 188.393 84.4787 188.393 84.5747C188.393 84.5747 188.393 84.6707 188.297 84.6707C188.297 84.6707 188.201 84.7667 188.009 84.8627C187.721 85.0547 187.336 85.2468 187.048 85.3428C186.76 85.4388 186.376 85.4388 185.992 85.4388C185.224 85.4388 184.744 85.2468 184.36 84.7667C184.072 84.3827 183.88 83.8066 183.88 83.0385C183.88 81.6944 184.264 80.5423 184.936 79.5822C185.608 78.6221 186.568 78.238 187.624 78.238C187.817 78.238 188.009 78.238 188.201 78.334C188.393 78.334 188.585 78.43 188.777 78.43C188.969 78.5261 189.161 78.6221 189.257 78.6221C189.353 78.7181 189.449 78.7181 189.449 78.8141C189.545 78.8141 189.545 78.8141 189.449 78.9101Z" fill="white"/>
</svg>
