<svg width="9" height="17" viewBox="0 0 9 17" fill="none" xmlns="http://www.w3.org/2000/svg">
<path d="M0.489519 8.64272H2.26685V15.9643C2.26685 16.1101 2.38407 16.2273 2.52981 16.2273H5.54589C5.69163 16.2273 5.80885 16.1101 5.80885 15.9643V8.67757H7.8523C7.98537 8.67757 8.09625 8.57935 8.11209 8.44629L8.42257 5.7502C8.43208 5.67733 8.40673 5.60129 8.35921 5.54743C8.30852 5.49041 8.23882 5.45872 8.16278 5.45872H5.80885V3.7701C5.80885 3.26003 6.08448 3.00341 6.62306 3.00341C6.6991 3.00341 8.16278 3.00341 8.16278 3.00341C8.30852 3.00341 8.42574 2.88619 8.42574 2.74045V0.266125C8.42574 0.12039 8.30852 0.00316815 8.16278 0.00316815H6.04012C6.02428 0.00316815 5.9926 0 5.94191 0C5.5744 0 4.29447 0.0728675 3.28383 1.00114C2.1623 2.03712 2.31754 3.26953 2.35556 3.4818V5.45872H0.489519C0.343784 5.45872 0.226562 5.57595 0.226562 5.72168V8.38293C0.226562 8.5255 0.343784 8.64272 0.489519 8.64272Z" fill="white"/>
</svg>
