<svg width="18" height="17" viewBox="0 0 18 17" fill="none" xmlns="http://www.w3.org/2000/svg">
<path d="M13.1235 0H5.51321C2.91948 0 0.818359 2.09988 0.818359 4.69208V12.3079C0.818359 14.8901 2.91948 17 5.51321 17H13.1336C15.7172 17 17.8284 14.9001 17.8284 12.3079V4.69208C17.8184 2.09988 15.7072 0 13.1235 0ZM16.3104 12.2979C16.3104 14.0561 14.8828 15.4829 13.1235 15.4829H5.51321C3.7539 15.4829 2.32634 14.0561 2.32634 12.2979V4.69208C2.32634 2.93381 3.7539 1.50709 5.51321 1.50709H13.1336C14.8929 1.50709 16.3204 2.93381 16.3204 4.69208L16.3104 12.2979Z" fill="white"/>
<path d="M9.31358 4.11865C6.90081 4.11865 4.94043 6.07787 4.94043 8.48922C4.94043 10.9006 6.90081 12.8698 9.32364 12.8698C11.7465 12.8698 13.7068 10.9106 13.7068 8.48922C13.6968 6.07787 11.7364 4.11865 9.31358 4.11865ZM9.31358 11.3627C7.73523 11.3627 6.43836 10.0767 6.43836 8.48922C6.44841 6.9118 7.73523 5.62574 9.31358 5.62574C10.8919 5.62574 12.1888 6.9118 12.1888 8.49927C12.1888 10.0767 10.902 11.3627 9.31358 11.3627Z" fill="white"/>
<path d="M13.8773 2.84351C13.5858 2.84351 13.3043 2.96407 13.0932 3.16502C12.8821 3.36596 12.7715 3.65734 12.7715 3.94871C12.7715 4.24008 12.8921 4.5214 13.0932 4.73239C13.2942 4.93334 13.5858 5.05391 13.8773 5.05391C14.1689 5.05391 14.4504 4.93334 14.6615 4.73239C14.8726 4.53145 14.9832 4.24008 14.9832 3.94871C14.9832 3.65734 14.8625 3.37601 14.6615 3.16502C14.4604 2.95403 14.1689 2.84351 13.8773 2.84351Z" fill="white"/>
</svg>
