<svg width="26" height="16" viewBox="0 0 26 16" fill="none" xmlns="http://www.w3.org/2000/svg">
<path d="M22.3048 9.87419C23.165 10.7173 24.0762 11.5008 24.8427 12.4291C25.1833 12.8379 25.507 13.2637 25.7539 13.7406C26.1031 14.4219 25.788 15.1628 25.1833 15.2054H21.4106C20.4397 15.2821 19.6562 14.8903 19.009 14.226C18.4895 13.6895 18.0041 13.1274 17.5016 12.5739C17.2972 12.3524 17.0758 12.1395 16.8203 11.9692C16.3008 11.6371 15.858 11.7393 15.5599 12.2758C15.2618 12.8208 15.1937 13.4255 15.1596 14.0387C15.117 14.9244 14.853 15.1628 13.9588 15.2054C12.0511 15.2991 10.2372 15.0095 8.55945 14.0472C7.0776 13.1956 5.9279 12.0033 4.92297 10.6407C2.96421 7.99208 1.47385 5.08801 0.128269 2.10729C-0.169803 1.4345 0.0516216 1.07681 0.792543 1.05978C2.02741 1.03423 3.25377 1.03423 4.48864 1.05978C4.9911 1.0683 5.32324 1.35785 5.5106 1.82625C6.17487 3.46139 6.99244 5.0284 8.0144 6.46766C8.28692 6.85089 8.56796 7.23413 8.95971 7.50665C9.39405 7.80472 9.7347 7.71104 9.93909 7.21709C10.0668 6.91051 10.1265 6.57837 10.1605 6.24623C10.2542 5.10504 10.2712 3.97237 10.1009 2.83118C9.99871 2.12432 9.59844 1.66444 8.89158 1.52818C8.5339 1.46005 8.585 1.32379 8.75532 1.11939C9.06191 0.761708 9.34295 0.540283 9.91354 0.540283H14.1802C14.853 0.676545 14.9978 0.974617 15.0915 1.64741V6.39101C15.083 6.65502 15.2192 7.43 15.6961 7.60033C16.0709 7.71956 16.3263 7.42149 16.5478 7.18303C17.5697 6.10145 18.3021 4.81549 18.9494 3.48694C19.2389 2.89931 19.4859 2.29465 19.7244 1.68999C19.9032 1.23862 20.1842 1.0172 20.6867 1.02571H24.7916C24.9108 1.02571 25.0386 1.02571 25.1578 1.05126C25.8476 1.17049 26.0435 1.46856 25.8221 2.14136C25.4814 3.2059 24.8342 4.08308 24.1869 4.9773C23.5056 5.92261 22.7732 6.84238 22.0919 7.79621C21.4872 8.68191 21.5298 9.11624 22.3048 9.87419Z" fill="white"/>
</svg>
