<svg width="43" height="36" viewBox="0 0 43 36" fill="none" xmlns="http://www.w3.org/2000/svg">
<g style="mix-blend-mode:darken">
<path d="M41.2148 0.820312C42.3053 0.820312 42.8506 1.19466 42.8506 1.94336C42.8506 2.9362 42.0938 4.44987 40.5801 6.48438C39.3594 8.11198 37.6097 9.20247 35.3311 9.75586C34.6475 9.9349 34.0208 10.0244 33.4512 10.0244C32.8978 10.0244 32.2956 9.98372 31.6445 9.90234C29.9681 9.69076 27.8685 9.55241 25.3457 9.4873C23.36 13.0029 21.8952 15.6885 20.9512 17.5439L24.7354 17.4463C25.5003 17.4788 26.4362 17.4382 27.543 17.3242L29.9844 17.1045C30.4727 17.0557 30.7982 17.0231 30.9609 17.0068C31.6283 16.9417 32.0433 17.0312 32.2061 17.2754C32.5153 17.7148 32.6699 18.2275 32.6699 18.8135C32.6699 19.3994 32.6292 19.904 32.5479 20.3271C32.4665 20.734 32.3525 21.1247 32.2061 21.499C31.8805 22.3291 31.5143 22.9069 31.1074 23.2324C30.2285 23.9323 28.7637 24.2822 26.7129 24.2822C26.3223 24.2822 25.9479 24.266 25.5898 24.2334L18.1436 23.6475C16.8903 26.626 15.9056 29.5312 15.1895 32.3633C14.6361 34.5117 12.5446 35.5859 8.91504 35.5859C5.92025 35.5859 4.00781 34.8861 3.17773 33.4863C2.90104 33.0143 2.79525 32.5667 2.86035 32.1436C2.92546 31.7204 3.08008 31.2484 3.32422 30.7275C3.58464 30.1904 3.92643 29.5312 4.34961 28.75L7.81641 22.8174C7.7513 22.8174 7.53158 22.8011 7.15723 22.7686C6.79915 22.736 6.5306 22.6953 6.35156 22.6465C5.91211 22.5 5.55404 22.2314 5.27734 21.8408C5.00065 21.4502 4.8623 21.0433 4.8623 20.6201C4.8623 19.79 5.10645 19.1634 5.59473 18.7402C6.08301 18.3171 6.58757 18.0729 7.1084 18.0078C7.64551 17.9427 8.22331 17.902 8.8418 17.8857L10.8926 17.8369C13.3991 13.9469 15.2139 11.1963 16.3369 9.58496C12.3005 9.87793 8.79297 10.8301 5.81445 12.4414C4.98438 12.8971 4.30892 13.3447 3.78809 13.7842C3.28353 14.2236 2.85221 14.4434 2.49414 14.4434C2.13607 14.4434 1.82682 14.3945 1.56641 14.2969C1.32227 14.1829 1.0944 14.0365 0.882812 13.8574C0.427083 13.4505 0.199219 13.0111 0.199219 12.5391C0.199219 12.0508 0.329427 11.6032 0.589844 11.1963C3.69857 6.39486 7.16536 3.45703 10.9902 2.38281C12.3411 2.00846 13.8223 1.82129 15.4336 1.82129C22.1393 1.82129 27.4616 1.73991 31.4004 1.57715C35.3555 1.41439 37.512 1.30859 37.8701 1.25977L40.1406 0.917969C40.515 0.852865 40.873 0.820312 41.2148 0.820312Z" fill="#F90000" fill-opacity="0.56"/>
</g>
</svg>
