<svg width="50" height="50" viewBox="0 0 50 50" fill="none" xmlns="http://www.w3.org/2000/svg">
<g clip-path="url(#clip0)">
<path d="M14.1662 5.06535e-05H10.6829C8.05635 -0.010991 5.76646 1.78422 5.15042 4.33755L0.589584 5.72838C0.149584 5.86338 -0.0976035 6.32953 0.0373965 6.76953C0.144688 7.11911 0.467292 7.35786 0.832917 7.35838H4.99958V17.5001C4.99958 17.9603 5.37271 18.3334 5.83292 18.3334H13.1079C16.8824 18.3588 19.9652 15.3244 19.9996 11.5501V5.83338C19.9959 2.61328 17.3863 0.00380065 14.1662 5.06535e-05ZM18.3329 11.5501C18.3 14.4045 15.9625 16.6936 13.1079 16.6667H6.66625V7.50005H18.3329V11.5501ZM6.66625 5.83338V5.59172C6.66333 5.44422 6.67302 5.29672 6.69542 5.15088C6.69542 5.13755 6.69542 5.12422 6.70125 5.11088C6.97187 3.12401 8.67781 1.64838 10.6829 1.66672H14.1662C16.4662 1.66943 18.3302 3.53338 18.3329 5.83338H6.66625Z" fill="white"/>
<path d="M49.1662 15.8334H24.9996C24.5394 15.8334 24.1662 16.2065 24.1662 16.6667V33.6917L19.9996 29.5775V27.5C19.995 23.3598 16.6398 20.0046 12.4996 20H5.83292C5.37271 20 4.99958 20.3732 4.99958 20.8334V49.1667C4.99958 49.6269 5.37271 50 5.83292 50H19.1662C19.6265 50 19.9996 49.6269 19.9996 49.1667V39.7134C22.0829 41.6584 22.1471 41.6667 22.4996 41.6667H35.4879L38.5771 44.7559C38.9025 45.0812 39.43 45.0812 39.7554 44.7559L43.9221 40.5892C44.2474 40.2638 44.2474 39.7363 43.9221 39.4109L41.1779 36.6667H49.1662C49.6265 36.6667 49.9996 36.2936 49.9996 35.8334V16.6667C49.9996 16.2065 49.6265 15.8334 49.1662 15.8334ZM34.9996 17.5H39.1662V35H34.9996V17.5ZM25.8329 17.5H33.3329V35H25.8329V17.5ZM6.66625 21.6667H12.4996C15.7197 21.6704 18.3293 24.2799 18.3329 27.5V27.9317L13.9162 23.5734C13.761 23.4195 13.5514 23.3333 13.3329 23.3334H6.66625V21.6667ZM6.66625 25H11.3212L8.57708 27.7442C8.25156 28.0696 8.25146 28.5972 8.57687 28.9227C8.58187 28.9277 8.58698 28.9326 8.59208 28.9375C8.59208 28.9375 11.7537 31.9467 14.9996 35.0109V37.8875L6.66625 43.4434V25ZM18.3329 48.3334H16.6662V43.3334H18.3329V48.3334ZM18.3329 41.6667H15.8329C15.3727 41.6667 14.9996 42.0398 14.9996 42.5V48.3334H6.66625V45.4459L16.2954 39.0292C16.5279 38.8741 16.6671 38.6129 16.6662 38.3334V36.5834C17.2379 37.1217 17.7996 37.6492 18.3246 38.1425L18.3329 38.1509V41.6667ZM42.1546 40L39.1662 42.9884L36.4221 40.2442C36.2658 40.088 36.054 40 35.8329 40H22.7879C22.4904 39.7417 21.7221 39.045 19.7371 37.1842L19.4654 36.9284C18.5687 36.0867 17.5779 35.1567 16.5796 34.2109C14.0571 31.8309 11.5021 29.4042 10.3596 28.3184L13.3329 25.3409L24.2162 36.0834C24.3214 36.4284 24.6389 36.6648 24.9996 36.6667H38.8212L42.1546 40ZM48.3329 35H40.8329V17.5H48.3329V35Z" fill="white"/>
<path d="M46.6662 19.1666H42.4996V20.8333H46.6662V19.1666Z" fill="white"/>
<path d="M29.1663 31.6666H27.4996V33.3333H29.1663V31.6666Z" fill="white"/>
</g>
<defs>
<clipPath id="clip0">
<rect width="50" height="50" fill="white"/>
</clipPath>
</defs>
</svg>
