<svg width="50" height="50" viewBox="0 0 50 50" fill="none" xmlns="http://www.w3.org/2000/svg">
<path d="M9.375 27.0833C6.5042 27.0833 4.1667 29.4207 4.1667 32.2916C4.1667 35.1624 6.5042 37.5 9.375 37.5C12.2458 37.5 14.5833 35.1624 14.5833 32.2916C14.5833 29.4208 12.2458 27.0833 9.375 27.0833ZM9.375 35.4166C7.65205 35.4166 6.25 34.0146 6.25 32.2916C6.25 30.5687 7.65205 29.1666 9.375 29.1666C11.098 29.1666 12.5 30.5687 12.5 32.2916C12.5 34.0145 11.098 35.4166 9.375 35.4166Z" fill="white"/>
<path d="M40.625 27.0833C37.7542 27.0833 35.4167 29.4207 35.4167 32.2916C35.4167 35.1624 37.7542 37.5 40.625 37.5C43.4958 37.5 45.8333 35.1624 45.8333 32.2916C45.8333 29.4208 43.4958 27.0833 40.625 27.0833ZM40.625 35.4166C38.9021 35.4166 37.5 34.0146 37.5 32.2916C37.5 30.5687 38.9021 29.1666 40.625 29.1666C42.348 29.1666 43.75 30.5687 43.75 32.2916C43.75 34.0145 42.348 35.4166 40.625 35.4166Z" fill="white"/>
<path d="M43.75 20.8333H41.9875C41.3438 20.8333 40.7125 20.6125 40.2083 20.2083L32 13.6416C31.0792 12.9063 29.9229 12.5 28.7458 12.5H13.6875C11.9417 12.5 10.3229 13.3667 9.3542 14.8188L7.58125 17.4812C7.05 18.275 6.1625 18.75 5.2083 18.75C2.3375 18.75 0 21.0875 0 23.9583V28.125C0 30.9958 2.3375 33.3333 5.2083 33.3333C5.7833 33.3333 6.25 32.8666 6.25 32.2916C6.25 31.7166 5.7833 31.25 5.2083 31.25C3.48535 31.25 2.0833 29.8479 2.0833 28.125V23.9583C2.0833 22.2354 3.48535 20.8333 5.2083 20.8333C6.8625 20.8333 8.3958 20.0125 9.31455 18.6354L11.0875 15.9749C11.6688 15.1041 12.6417 14.5832 13.6875 14.5832H28.7458C29.4541 14.5832 30.1458 14.827 30.7 15.2687L38.9083 21.8332C39.7771 22.5312 40.8729 22.9165 41.9896 22.9165H43.75C46.8063 22.9165 47.9167 26.0311 47.9167 28.1248C47.9167 30.1769 46.3459 31.2498 44.7917 31.2498C44.2167 31.2498 43.75 31.7165 43.75 32.2915C43.75 32.8665 44.2167 33.3332 44.7917 33.3332C47.7604 33.3333 50 31.0938 50 28.125C50 24.5896 47.8104 20.8333 43.75 20.8333Z" fill="white"/>
<path d="M36.4583 31.25H13.5417C12.9667 31.25 12.5 31.7167 12.5 32.2917C12.5 32.8667 12.9667 33.3334 13.5417 33.3334H36.4584C37.0334 33.3334 37.5001 32.8667 37.5001 32.2917C37.5001 31.7167 37.0333 31.25 36.4583 31.25Z" fill="white"/>
<path d="M34.375 20.8333H25V17.7083C25 17.1333 24.5333 16.6666 23.9583 16.6666C23.3833 16.6666 22.9166 17.1333 22.9166 17.7083V21.875C22.9166 22.45 23.3833 22.9167 23.9583 22.9167H34.375C34.95 22.9167 35.4167 22.45 35.4167 21.875C35.4167 21.3 34.95 20.8333 34.375 20.8333Z" fill="white"/>
<path d="M19.7917 20.8333H13.1438L14.475 18.175C14.7313 17.6605 14.523 17.0355 14.0083 16.7771C13.4916 16.5208 12.8688 16.7271 12.6104 17.2438L10.5271 21.4105C10.3646 21.7313 10.3833 22.1167 10.5729 22.423C10.7624 22.7292 11.0979 22.9167 11.4583 22.9167H19.7916C20.3666 22.9167 20.8333 22.45 20.8333 21.875C20.8333 21.3 20.3667 20.8333 19.7917 20.8333Z" fill="white"/>
<path d="M28.125 25H26.0417C25.4667 25 25 25.4667 25 26.0417C25 26.6167 25.4667 27.0834 26.0417 27.0834H28.125C28.7 27.0834 29.1667 26.6167 29.1667 26.0417C29.1667 25.4667 28.7 25 28.125 25Z" fill="white"/>
</svg>
